<?xml version="1.0" encoding="UTF-8" standalone="no"?>
<!-- Created with Inkscape (http://www.inkscape.org/) -->

<svg
   xmlns:dc="http://purl.org/dc/elements/1.1/"
   xmlns:cc="http://creativecommons.org/ns#"
   xmlns:rdf="http://www.w3.org/1999/02/22-rdf-syntax-ns#"
   xmlns:svg="http://www.w3.org/2000/svg"
   xmlns="http://www.w3.org/2000/svg"
   xmlns:sodipodi="http://sodipodi.sourceforge.net/DTD/sodipodi-0.dtd"
   xmlns:inkscape="http://www.inkscape.org/namespaces/inkscape"
   width="210mm"
   height="297mm"
   viewBox="0 0 210 297"
   version="1.1"
   id="svg8"
   inkscape:version="0.92.1 r15371"
   sodipodi:docname="drawing-2.svg">
  <sodipodi:namedview
     id="base"
     pagecolor="#ffffff"
     bordercolor="#666666"
     borderopacity="1.0"
     inkscape:pageopacity="0.0"
     inkscape:pageshadow="2"
     inkscape:zoom="0.49497475"
     inkscape:cx="544.67159"
     inkscape:cy="502.58517"
     inkscape:document-units="mm"
     inkscape:current-layer="layer1"
     showgrid="false"
     inkscape:window-width="796"
     inkscape:window-height="648"
     inkscape:window-x="109"
     inkscape:window-y="50"
     inkscape:window-maximized="0" />
  <defs
     id="defs2" />
  <metadata
     id="metadata5">
    <rdf:RDF>
      <cc:Work
         rdf:about="">
        <dc:format>image/svg+xml</dc:format>
        <dc:type
           rdf:resource="http://purl.org/dc/dcmitype/StillImage" />
        <dc:title></dc:title>
      </cc:Work>
    </rdf:RDF>
  </metadata>
  <g
     inkscape:label="Layer 1"
     inkscape:groupmode="layer"
     id="layer1">
    <rect
       style="opacity:1;fill:none;fill-opacity:0.97641512;stroke:#000000;stroke-width:0.60000002;stroke-miterlimit:4;stroke-dasharray:none;stroke-dashoffset:0;stroke-opacity:1"
       id="rect4485"
       width="31.75"
       height="31.75"
       x="17.386906"
       y="39.220238" />
    <rect
       style="opacity:1;fill:none;fill-opacity:0.97641512;stroke:#000000;stroke-width:0.6;stroke-miterlimit:4;stroke-dasharray:none;stroke-dashoffset:0;stroke-opacity:1"
       id="rect4485-4"
       width="31.75"
       height="31.75"
       x="80.886902"
       y="39.22023" />
    <rect
       style="opacity:1;fill:none;fill-opacity:0.97641512;stroke:#000000;stroke-width:0.60000002;stroke-miterlimit:4;stroke-dasharray:none;stroke-dashoffset:0;stroke-opacity:1"
       id="rect4485-4-8"
       width="31.75"
       height="31.75"
       x="49.136906"
       y="39.220234" />
    <path
       style="fill:none;fill-rule:evenodd;stroke:#000000;stroke-width:0.60000003;stroke-linecap:butt;stroke-linejoin:miter;stroke-opacity:1;stroke-miterlimit:4;stroke-dasharray:1.20000006,0.60000003;stroke-dashoffset:0"
       d="M 65.011906,39.352175 V 71.157247"
       id="path4517"
       inkscape:connector-curvature="0" />
    <g
       id="g4703"
       transform="translate(-218.84821,-35.151786)">
      <g
         id="content"
         transform="matrix(0.3,0,0,-0.3,-52.5,222.75)"
         xml:space="preserve"
         stroke-miterlimit="10.433"
         font-style="normal"
         font-variant="normal"
         font-weight="normal"
         font-stretch="normal"
         font-size-adjust="none"
         letter-spacing="normal"
         word-spacing="normal"
         style="font-style:normal;font-variant:normal;font-weight:normal;font-stretch:normal;letter-spacing:normal;word-spacing:normal;text-anchor:start;fill:none;fill-opacity:1;fill-rule:evenodd;stroke:#000000;stroke-linecap:butt;stroke-linejoin:miter;stroke-miterlimit:10.43299961;stroke-dasharray:none;stroke-dashoffset:0;stroke-opacity:1"><path
           d="m 474.16,365.77 h 0.1 0.1 0.09 0.08 l 0.09,0.01 h 0.07 0.08 0.07 l 0.07,0.01 h 0.06 l 0.06,0.01 0.05,0.01 0.05,0.01 0.05,0.01 0.04,0.02 0.05,0.01 0.03,0.02 0.04,0.02 0.03,0.02 0.03,0.02 0.03,0.03 0.02,0.03 0.02,0.03 0.02,0.04 0.01,0.04 0.02,0.04 0.01,0.05 0.01,0.04 v 0.06 l 0.01,0.05 v 0.06 0.07 c 0.09,34.92 4.13,63.92 21.56,88.28 0.36,0.45 0.36,0.54 0.36,0.64 0,0.5 -0.36,0.5 -1.15,0.5 -0.8,0 -0.89,0 -0.99,-0.1 -0.2,-0.15 -6.53,-7.42 -11.56,-17.43 -6.58,-13.16 -10.72,-28.25 -12.56,-46.39 -0.14,-1.53 -1.19,-11.91 -1.19,-23.71 v -1.95 c 0.05,-0.55 0.34,-0.55 1.39,-0.55 z"
           id="path4688"
           inkscape:connector-curvature="0"
           style="fill:#000000;stroke-width:0" /><path
           d="m 471.41,366.8 h -0.1 -0.09 -0.09 -0.08 -0.08 -0.07 -0.07 -0.07 l -0.07,-0.01 h -0.06 l -0.05,-0.01 h -0.06 l -0.05,-0.01 -0.05,-0.01 -0.04,-0.01 -0.04,-0.01 -0.04,-0.02 -0.03,-0.01 -0.04,-0.02 -0.03,-0.02 -0.02,-0.02 -0.03,-0.02 -0.02,-0.03 -0.02,-0.03 -0.02,-0.03 -0.01,-0.03 -0.02,-0.03 -0.01,-0.04 -0.01,-0.04 -0.01,-0.05 v -0.04 l -0.01,-0.05 v -1.94 c 0,-30.44 5.42,-48.28 6.97,-53.31 3.39,-11.06 8.92,-22.72 17.25,-32.99 0.73,-0.89 0.94,-1.14 1.14,-1.23 0.09,-0.06 0.14,-0.11 0.94,-0.11 0.79,0 1.15,0 1.15,0.5 0,0.11 0,0.2 -0.29,0.66 -16.6,23.01 -21.58,50.71 -21.63,88.28 0,0.68 -0.3,0.68 -1.39,0.68 z"
           id="path4690"
           inkscape:connector-curvature="0"
           style="fill:#000000;stroke-width:0" /><path
           d="m 507.32,405.5 -0.01,-0.03 v -0.03 l -0.01,-0.02 v -0.03 l -0.01,-0.02 -0.01,-0.03 v -0.02 l -0.01,-0.02 v -0.03 l -0.01,-0.02 v -0.02 -0.02 l -0.01,-0.02 v -0.02 l -0.01,-0.03 -0.01,-0.04 v -0.03 l -0.01,-0.03 -0.01,-0.03 v -0.02 l -0.01,-0.03 v -0.02 -0.02 l -0.01,-0.02 v -0.02 -0.02 -0.02 -0.01 l -0.01,-0.02 v -0.01 -0.01 -0.02 -0.01 -0.02 -0.02 -0.02 c 0,-0.74 0.55,-1.34 1.39,-1.34 1.05,0 1.64,0.9 1.75,1.04 0.23,0.46 1.84,7.13 3.19,12.52 0.98,-2 2.58,-3.35 4.92,-3.35 l -0.05,1.1 c -3.48,0 -4.28,3.98 -4.28,4.44 0,0.2 0.25,1.18 0.39,1.84 1.41,5.58 1.91,7.37 3,9.36 2.14,3.64 4.63,4.73 6.17,4.73 1.85,0 3.44,-1.43 3.44,-4.87 0,-2.75 -1.44,-8.33 -2.78,-10.77 -1.66,-3.14 -4.05,-4.73 -5.94,-4.73 v 0 l 0.05,-1.1 c 5.83,0 12.27,7.04 12.27,14.46 0,5.28 -3.3,8.11 -6.94,8.11 -4.83,0 -10.06,-4.99 -11.55,-11.07 z"
           id="path4692"
           inkscape:connector-curvature="0"
           style="fill:#000000;stroke-width:0" /><path
           d="m 514.29,370.11 0.21,1.28 3.39,13.56 c 0.43,1.74 0.54,1.89 2.68,1.89 h 4.78 c 4.15,0 6.79,-1.34 6.79,-4.78 0,-1.95 -1,-6.23 -2.94,-8.03 -2.5,-2.23 -5.48,-2.64 -7.69,-2.64 h -7.01 l -0.21,-1.28 h 8.47 c 7.08,0 14,5.17 14,10.75 0,3.84 -3.28,7.53 -9.81,7.53 h -16.14 c -0.95,0 -1.5,0 -1.5,-0.95 0,-0.6 0.45,-0.6 1.45,-0.6 0.64,0 1.55,-0.04 2.14,-0.09 0.8,-0.11 1.1,-0.25 1.1,-0.8 0,-0.2 -0.05,-0.36 -0.21,-0.95 l -6.67,-26.75 c -0.5,-1.95 -0.59,-2.34 -4.53,-2.34 -0.84,0 -1.39,0 -1.39,-0.96 0,-0.59 0.59,-0.59 0.73,-0.59 1.41,0 4.94,0.16 6.33,0.16 1.05,0 2.14,-0.07 3.19,-0.07 1.11,0 2.2,-0.09 3.25,-0.09 0.34,0 0.98,0 0.98,1 0,0.55 -0.43,0.55 -1.39,0.55 -1.84,0 -3.23,0 -3.23,0.89 0,0.29 0.09,0.54 0.14,0.84 z"
           id="path4694"
           inkscape:connector-curvature="0"
           style="fill:#000000;stroke-width:0" /><path
           d="m 521.92,324.84 0.02,0.06 0.01,0.06 0.03,0.13 0.04,0.11 0.03,0.11 0.02,0.11 0.03,0.1 0.03,0.09 0.03,0.09 0.03,0.08 0.03,0.08 0.03,0.07 0.03,0.07 0.03,0.06 0.03,0.06 0.03,0.06 0.03,0.05 0.03,0.05 0.03,0.05 0.04,0.04 0.03,0.04 0.04,0.03 0.03,0.03 0.04,0.03 0.04,0.03 0.04,0.03 0.05,0.02 0.04,0.02 0.05,0.02 0.05,0.02 0.05,0.01 0.05,0.02 0.05,0.01 c 0.46,0.11 2.1,0.11 3.14,0.11 5.03,0 7.27,-0.2 7.27,-4.09 0,-0.74 -0.19,-2.69 -0.39,-3.99 -0.05,-0.19 -0.16,-0.8 -0.16,-0.94 0,-0.29 0.16,-0.65 0.6,-0.65 0.56,0 0.65,0.4 0.75,1.15 l 1.34,8.66 c 0.06,0.2 0.11,0.7 0.11,0.86 0,0.55 -0.5,0.55 -1.34,0.55 h -27.66 c -1.2,0 -1.25,-0.07 -1.6,-1 l -2.98,-8.77 c -0.06,-0.11 -0.3,-0.8 -0.3,-0.91 0,-0.29 0.24,-0.54 0.6,-0.54 0.5,0 0.54,0.25 0.84,1.04 2.69,7.72 3.99,8.63 11.36,8.63 h 1.94 c 1.4,0 1.4,-0.2 1.4,-0.59 0,-0.32 -0.15,-0.91 -0.2,-1.05 l -6.67,-26.61 c -0.45,-1.84 -0.61,-2.39 -5.94,-2.39 -1.79,0 -2.09,0 -2.09,-0.95 0,-0.6 0.54,-0.6 0.84,-0.6 1.36,0 2.75,0.1 4.1,0.1 1.39,0 2.84,0.06 4.23,0.06 1.39,0 2.78,-0.06 4.14,-0.06 1.44,0 2.94,-0.1 4.33,-0.1 0.5,0 1.09,0 1.09,1 0,0.55 -0.39,0.55 -1.69,0.55 -1.24,0 -1.89,0 -3.18,0.09 -1.46,0.16 -1.85,0.3 -1.85,1.1 0,0.06 0,0.31 0.19,1.04 z"
           id="path4696"
           inkscape:connector-curvature="0"
           style="fill:#000000;stroke-width:0" /><path
           d="m 567.12,368.27 -0.01,2.82 -0.05,2.74 -0.07,2.67 -0.1,2.6 -0.13,2.52 -0.15,2.44 -0.17,2.38 -0.19,2.29 -0.21,2.23 -0.22,2.15 -0.24,2.07 -0.26,2.01 -0.26,1.92 -0.27,1.86 -0.29,1.77 -0.29,1.71 -0.29,1.63 -0.29,1.55 -0.3,1.48 -0.3,1.41 -0.29,1.33 -0.29,1.26 -0.28,1.18 -0.28,1.11 -0.27,1.03 -0.25,0.96 -0.25,0.89 -0.22,0.8 -0.22,0.74 -0.19,0.66 -0.18,0.58 -0.15,0.51 c -3.39,11.06 -8.93,22.72 -17.25,32.98 -0.75,0.91 -0.94,1.16 -1.14,1.25 -0.1,0.05 -0.16,0.1 -0.96,0.1 -0.73,0 -1.14,0 -1.14,-0.5 0,-0.1 0,-0.19 0.64,-1.1 17.35,-24.2 21.24,-54.09 21.28,-87.82 0,-0.71 0.3,-0.71 1.39,-0.71 h 2.75 c 1.05,0 1.35,0 1.39,0.55 z"
           id="path4698"
           inkscape:connector-curvature="0"
           style="fill:#000000;stroke-width:0" /><path
           d="m 567.12,366.26 v 0.05 l -0.01,0.04 -0.01,0.05 -0.01,0.04 -0.01,0.04 -0.01,0.03 -0.02,0.03 -0.01,0.03 -0.03,0.03 -0.02,0.03 -0.02,0.02 -0.03,0.02 -0.03,0.02 -0.03,0.02 -0.04,0.01 -0.04,0.02 -0.04,0.01 -0.04,0.01 -0.05,0.01 -0.05,0.01 h -0.05 l -0.06,0.01 h -0.06 l -0.06,0.01 h -0.07 -0.07 -0.08 -0.08 -0.08 -0.09 -0.09 -0.1 -2.75 c -1.09,0 -1.39,0 -1.39,-0.68 0,-5.14 -0.04,-17 -1.34,-29.39 -2.69,-25.77 -9.31,-43.6 -20.23,-58.89 -0.35,-0.46 -0.35,-0.55 -0.35,-0.66 0,-0.5 0.41,-0.5 1.14,-0.5 0.8,0 0.91,0 1,0.11 0.21,0.14 6.53,7.42 11.57,17.44 6.57,13.14 10.7,28.25 12.54,46.37 0.16,1.55 1.2,11.91 1.2,23.72 z"
           id="path4700"
           inkscape:connector-curvature="0"
           style="fill:#000000;stroke-width:0" /></g>    </g>
    <g
       id="g7566"
       transform="matrix(2.0388125,0,0,2.0388125,-0.03947489,-86.973186)"
       inkscape:export-filename="/home/astromix/astro/MasterThesis/Document/Images/shock-shock.png"
       inkscape:export-xdpi="90"
       inkscape:export-ydpi="90">
      <text
         id="text4521"
         y="116.05344"
         x="30.125122"
         style="font-style:normal;font-weight:normal;font-size:1.9580611px;line-height:100%;font-family:sans-serif;text-align:justify;letter-spacing:0px;word-spacing:0px;text-anchor:start;fill:#000000;fill-opacity:1;stroke:none;stroke-width:0.04895153px;stroke-linecap:butt;stroke-linejoin:miter;stroke-opacity:1"
         xml:space="preserve"><tspan
           style="font-style:normal;font-variant:normal;font-weight:normal;font-stretch:normal;font-size:1.9580611px;line-height:100%;font-family:sans-serif;-inkscape-font-specification:'sans-serif, Normal';font-variant-ligatures:normal;font-variant-caps:normal;font-variant-numeric:normal;font-feature-settings:normal;text-align:center;writing-mode:lr-tb;text-anchor:middle;stroke-width:0.04895153px"
           y="116.05344"
           x="30.125122"
           id="tspan4519"
           sodipodi:role="line">Backward</tspan><tspan
           id="tspan4523"
           style="font-style:normal;font-variant:normal;font-weight:normal;font-stretch:normal;font-size:1.9580611px;line-height:100%;font-family:sans-serif;-inkscape-font-specification:'sans-serif, Normal';font-variant-ligatures:normal;font-variant-caps:normal;font-variant-numeric:normal;font-feature-settings:normal;text-align:center;writing-mode:lr-tb;text-anchor:middle;stroke-width:0.04895153px"
           y="118.0115"
           x="30.125122"
           sodipodi:role="line">Shock</tspan></text>
      <text
         id="text4521-6"
         y="116.05344"
         x="70.242828"
         style="font-style:normal;font-weight:normal;font-size:1.9580611px;line-height:100%;font-family:sans-serif;text-align:justify;letter-spacing:0px;word-spacing:0px;text-anchor:start;fill:#000000;fill-opacity:1;stroke:none;stroke-width:0.04895153px;stroke-linecap:butt;stroke-linejoin:miter;stroke-opacity:1"
         xml:space="preserve"><tspan
           id="tspan4523-5"
           style="font-style:normal;font-variant:normal;font-weight:normal;font-stretch:normal;font-size:1.9580611px;line-height:100%;font-family:sans-serif;-inkscape-font-specification:'sans-serif, Normal';font-variant-ligatures:normal;font-variant-caps:normal;font-variant-numeric:normal;font-feature-settings:normal;text-align:center;writing-mode:lr-tb;text-anchor:middle;stroke-width:0.04895153px"
           y="116.05344"
           x="70.242828"
           sodipodi:role="line">Forward</tspan><tspan
           id="tspan4548"
           style="font-style:normal;font-variant:normal;font-weight:normal;font-stretch:normal;font-size:1.9580611px;line-height:100%;font-family:sans-serif;-inkscape-font-specification:'sans-serif, Normal';font-variant-ligatures:normal;font-variant-caps:normal;font-variant-numeric:normal;font-feature-settings:normal;text-align:center;writing-mode:lr-tb;text-anchor:middle;stroke-width:0.04895153px"
           y="118.0115"
           x="70.242828"
           sodipodi:role="line">Shock</tspan></text>
      <text
         id="text4521-6-7"
         y="115.84644"
         x="50.183075"
         style="font-style:normal;font-weight:normal;font-size:1.9580611px;line-height:100%;font-family:sans-serif;text-align:justify;letter-spacing:0px;word-spacing:0px;text-anchor:start;fill:#000000;fill-opacity:1;stroke:none;stroke-width:0.04895153px;stroke-linecap:butt;stroke-linejoin:miter;stroke-opacity:1"
         xml:space="preserve"><tspan
           id="tspan4548-4"
           style="font-style:normal;font-variant:normal;font-weight:normal;font-stretch:normal;font-size:1.9580611px;line-height:100%;font-family:sans-serif;-inkscape-font-specification:'sans-serif, Normal';font-variant-ligatures:normal;font-variant-caps:normal;font-variant-numeric:normal;font-feature-settings:normal;text-align:center;writing-mode:lr-tb;text-anchor:middle;stroke-width:0.04895153px"
           y="115.84644"
           x="50.183075"
           sodipodi:role="line">Contact</tspan><tspan
           id="tspan4573"
           style="font-style:normal;font-variant:normal;font-weight:normal;font-stretch:normal;font-size:1.9580611px;line-height:100%;font-family:sans-serif;-inkscape-font-specification:'sans-serif, Normal';font-variant-ligatures:normal;font-variant-caps:normal;font-variant-numeric:normal;font-feature-settings:normal;text-align:center;writing-mode:lr-tb;text-anchor:middle;stroke-width:0.04895153px"
           y="117.8045"
           x="50.183075"
           sodipodi:role="line">Discontinuity</tspan></text>
      <rect
         y="84.073669"
         x="0.38800001"
         height="29.224312"
         width="99.224312"
         id="rect4575"
         style="opacity:1;fill:none;fill-opacity:0.97641512;stroke:#000000;stroke-width:0.69999999;stroke-miterlimit:4;stroke-dasharray:none;stroke-dashoffset:0;stroke-opacity:1" />
      <path
         inkscape:connector-curvature="0"
         id="path4577"
         d="M 30.132292,83.723669 V 113.72367"
         style="fill:none;fill-rule:evenodd;stroke:#000000;stroke-width:0.5;stroke-linecap:butt;stroke-linejoin:miter;stroke-miterlimit:4;stroke-dasharray:none;stroke-opacity:1" />
      <path
         inkscape:connector-curvature="0"
         id="path4577-3"
         d="M 70.25,83.723669 V 113.72367"
         style="fill:none;fill-rule:evenodd;stroke:#000000;stroke-width:0.5;stroke-linecap:butt;stroke-linejoin:miter;stroke-miterlimit:4;stroke-dasharray:none;stroke-opacity:1" />
      <path
         inkscape:connector-curvature="0"
         id="path4577-3-1"
         d="M 50.25,83.723669 V 113.72367"
         style="fill:none;fill-rule:evenodd;stroke:#000000;stroke-width:0.5;stroke-linecap:butt;stroke-linejoin:miter;stroke-miterlimit:4;stroke-dasharray:1.00000003, 0.50000001;stroke-dashoffset:0;stroke-opacity:1" />
      <text
         id="text4611"
         y="91.358887"
         x="11.5187"
         style="font-style:normal;font-weight:normal;font-size:6.74695778px;line-height:125%;font-family:sans-serif;text-align:justify;letter-spacing:0px;word-spacing:0px;text-anchor:start;fill:#000000;fill-opacity:1;stroke:none;stroke-width:0.16867395px;stroke-linecap:butt;stroke-linejoin:miter;stroke-opacity:1"
         xml:space="preserve"><tspan
           style="stroke-width:0.16867395px"
           y="91.358887"
           x="11.5187"
           id="tspan4609"
           sodipodi:role="line">Jet</tspan></text>
      <text
         id="text4611-2"
         y="92.030945"
         x="79.583946"
         style="font-style:normal;font-weight:normal;font-size:6.74695778px;line-height:125%;font-family:sans-serif;text-align:justify;letter-spacing:0px;word-spacing:0px;text-anchor:start;fill:#000000;fill-opacity:1;stroke:none;stroke-width:0.16867395px;stroke-linecap:butt;stroke-linejoin:miter;stroke-opacity:1"
         xml:space="preserve"><tspan
           style="stroke-width:0.16867395px"
           y="92.030945"
           x="79.583946"
           id="tspan4609-0"
           sodipodi:role="line">ISM</tspan></text>
      <text
         id="text4633"
         y="88.310692"
         x="60.136856"
         style="font-style:normal;font-weight:normal;font-size:3.43296289px;line-height:114.99999762%;font-family:sans-serif;text-align:justify;letter-spacing:0px;word-spacing:0px;text-anchor:start;fill:#000000;fill-opacity:1;stroke:none;stroke-width:0.08582407px;stroke-linecap:butt;stroke-linejoin:miter;stroke-opacity:1"
         xml:space="preserve"><tspan
           style="font-style:normal;font-variant:normal;font-weight:normal;font-stretch:normal;font-size:3.43296289px;line-height:114.99999762%;font-family:sans-serif;-inkscape-font-specification:'sans-serif, Normal';font-variant-ligatures:normal;font-variant-caps:normal;font-variant-numeric:normal;font-feature-settings:normal;text-align:center;writing-mode:lr-tb;text-anchor:middle;stroke-width:0.08582407px"
           y="88.310692"
           x="60.683315"
           id="tspan4631"
           sodipodi:role="line">Shocked </tspan><tspan
           id="tspan4635"
           style="font-style:normal;font-variant:normal;font-weight:normal;font-stretch:normal;font-size:3.43296289px;line-height:114.99999762%;font-family:sans-serif;-inkscape-font-specification:'sans-serif, Normal';font-variant-ligatures:normal;font-variant-caps:normal;font-variant-numeric:normal;font-feature-settings:normal;text-align:center;writing-mode:lr-tb;text-anchor:middle;stroke-width:0.08582407px"
           y="92.258598"
           x="60.136856"
           sodipodi:role="line">Right</tspan></text>
      <text
         id="text4633-6"
         y="88.310692"
         x="40.078003"
         style="font-style:normal;font-weight:normal;font-size:3.43296313px;line-height:114.99999762%;font-family:sans-serif;text-align:justify;letter-spacing:0px;word-spacing:0px;text-anchor:start;fill:#000000;fill-opacity:1;stroke:none;stroke-width:0.08582407px;stroke-linecap:butt;stroke-linejoin:miter;stroke-opacity:1"
         xml:space="preserve"><tspan
           style="font-style:normal;font-variant:normal;font-weight:normal;font-stretch:normal;font-size:3.43296313px;line-height:114.99999762%;font-family:sans-serif;-inkscape-font-specification:'sans-serif, Normal';font-variant-ligatures:normal;font-variant-caps:normal;font-variant-numeric:normal;font-feature-settings:normal;text-align:center;writing-mode:lr-tb;text-anchor:middle;stroke-width:0.08582407px"
           y="88.310692"
           x="40.624462"
           id="tspan4631-6"
           sodipodi:role="line">Shocked </tspan><tspan
           id="tspan4635-3"
           style="font-style:normal;font-variant:normal;font-weight:normal;font-stretch:normal;font-size:3.43296313px;line-height:114.99999762%;font-family:sans-serif;-inkscape-font-specification:'sans-serif, Normal';font-variant-ligatures:normal;font-variant-caps:normal;font-variant-numeric:normal;font-feature-settings:normal;text-align:center;writing-mode:lr-tb;text-anchor:middle;stroke-width:0.08582407px"
           y="92.258598"
           x="40.078003"
           sodipodi:role="line">Left</tspan></text>
      <g
         id="g6140"
         transform="matrix(0.23896508,0,0,0.23896508,11.994942,76.01711)">
        <g
           word-spacing="normal"
           letter-spacing="normal"
           font-size-adjust="none"
           font-stretch="normal"
           font-weight="normal"
           font-variant="normal"
           font-style="normal"
           stroke-miterlimit="10.433"
           xml:space="preserve"
           transform="matrix(0.3,0,0,-0.3,-52.5,222.75)"
           id="g6138"
           style="font-style:normal;font-variant:normal;font-weight:normal;font-stretch:normal;letter-spacing:normal;word-spacing:normal;text-anchor:start;fill:none;fill-opacity:1;fill-rule:evenodd;stroke:#000000;stroke-linecap:butt;stroke-linejoin:miter;stroke-miterlimit:10.43299961;stroke-dasharray:none;stroke-dashoffset:0;stroke-opacity:1"><path
             id="path6096"
             d="m 474.16,365.77 h 0.1 0.1 0.09 0.08 l 0.09,0.01 h 0.07 0.08 0.07 l 0.07,0.01 h 0.06 l 0.06,0.01 0.05,0.01 0.05,0.01 0.05,0.01 0.04,0.02 0.05,0.01 0.03,0.02 0.04,0.02 0.03,0.02 0.03,0.02 0.03,0.03 0.02,0.03 0.02,0.03 0.02,0.04 0.01,0.04 0.02,0.04 0.01,0.05 0.01,0.04 v 0.06 l 0.01,0.05 v 0.06 0.07 c 0.09,34.92 4.13,63.92 21.56,88.28 0.36,0.45 0.36,0.54 0.36,0.64 0,0.5 -0.36,0.5 -1.15,0.5 -0.8,0 -0.89,0 -0.99,-0.1 -0.2,-0.15 -6.53,-7.42 -11.56,-17.43 -6.58,-13.16 -10.72,-28.25 -12.56,-46.39 -0.14,-1.53 -1.19,-11.91 -1.19,-23.71 v -1.95 c 0.05,-0.55 0.34,-0.55 1.39,-0.55 z"
             inkscape:connector-curvature="0"
             style="fill:#000000;stroke-width:0" /><path
             id="path6098"
             d="m 471.41,366.8 h -0.1 -0.09 -0.09 -0.08 -0.08 -0.07 -0.07 -0.07 l -0.07,-0.01 h -0.06 l -0.05,-0.01 h -0.06 l -0.05,-0.01 -0.05,-0.01 -0.04,-0.01 -0.04,-0.01 -0.04,-0.02 -0.03,-0.01 -0.04,-0.02 -0.03,-0.02 -0.02,-0.02 -0.03,-0.02 -0.02,-0.03 -0.02,-0.03 -0.02,-0.03 -0.01,-0.03 -0.02,-0.03 -0.01,-0.04 -0.01,-0.04 -0.01,-0.05 v -0.04 l -0.01,-0.05 v -1.94 c 0,-30.44 5.42,-48.28 6.97,-53.31 3.39,-11.06 8.92,-22.72 17.25,-32.99 0.73,-0.89 0.94,-1.14 1.14,-1.23 0.09,-0.06 0.14,-0.11 0.94,-0.11 0.79,0 1.15,0 1.15,0.5 0,0.11 0,0.2 -0.29,0.66 -16.6,23.01 -21.58,50.71 -21.63,88.28 0,0.68 -0.3,0.68 -1.39,0.68 z"
             inkscape:connector-curvature="0"
             style="fill:#000000;stroke-width:0" /><path
             id="path6100"
             d="m 522.12,430.06 v 0.75 l -0.01,0.74 -0.02,0.75 -0.04,0.74 -0.04,0.75 -0.06,0.74 -0.08,0.74 -0.09,0.73 -0.12,0.74 -0.14,0.72 -0.16,0.73 -0.19,0.71 -0.21,0.72 -0.25,0.7 -0.28,0.7 -0.15,0.35 -0.16,0.34 c -2.28,4.8 -6.37,5.6 -8.47,5.6 -2.98,0 -6.62,-1.3 -8.67,-5.94 -1.59,-3.44 -1.84,-7.33 -1.84,-11.31 0,-3.74 0.2,-8.22 2.25,-12 2.14,-4.03 5.78,-5.03 8.22,-5.03 v 1.09 c -1.94,0 -4.9,1.25 -5.79,6.03 -0.54,2.99 -0.54,7.56 -0.54,10.52 0,3.19 0,6.47 0.4,9.15 0.94,5.94 4.68,6.38 5.93,6.38 1.64,0 4.93,-0.89 5.87,-5.83 0.5,-2.78 0.5,-6.58 0.5,-9.7 0,-3.75 0,-7.13 -0.55,-10.31 -0.75,-4.74 -3.59,-6.24 -5.82,-6.24 v 0 -1.09 c 2.68,0 6.46,1.04 8.67,5.78 1.59,3.44 1.84,7.31 1.84,11.25 z"
             inkscape:connector-curvature="0"
             style="fill:#000000;stroke-width:0" /><path
             id="path6102"
             d="m 533.72,416.76 v 0.14 l -0.01,0.13 -0.02,0.13 -0.02,0.13 -0.03,0.12 -0.04,0.13 -0.04,0.12 -0.05,0.12 -0.05,0.12 -0.06,0.11 -0.06,0.11 -0.07,0.11 -0.08,0.1 -0.08,0.1 -0.08,0.1 -0.09,0.09 -0.09,0.09 -0.09,0.08 -0.1,0.08 -0.11,0.08 -0.11,0.06 -0.11,0.07 -0.11,0.06 -0.12,0.05 -0.12,0.05 -0.12,0.04 -0.12,0.04 -0.13,0.03 -0.13,0.02 -0.13,0.02 -0.14,0.01 h -0.13 c -1.44,0 -2.64,-1.2 -2.64,-2.64 0,-1.44 1.2,-2.64 2.64,-2.64 1.45,0 2.64,1.2 2.64,2.64 z"
             inkscape:connector-curvature="0"
             style="fill:#000000;stroke-width:0" /><path
             id="path6104"
             d="m 560.88,430.06 -0.01,0.75 -0.01,0.74 -0.02,0.75 -0.03,0.74 -0.05,0.75 -0.06,0.74 -0.07,0.74 -0.1,0.73 -0.11,0.74 -0.14,0.72 -0.17,0.73 -0.18,0.71 -0.22,0.72 -0.25,0.7 -0.27,0.7 -0.16,0.35 -0.15,0.34 c -2.29,4.8 -6.38,5.6 -8.47,5.6 -2.99,0 -6.63,-1.3 -8.68,-5.94 -1.59,-3.44 -1.84,-7.33 -1.84,-11.31 0,-3.74 0.2,-8.22 2.25,-12 2.14,-4.03 5.78,-5.03 8.22,-5.03 v 1.09 c -1.94,0 -4.89,1.25 -5.78,6.03 -0.55,2.99 -0.55,7.56 -0.55,10.52 0,3.19 0,6.47 0.41,9.15 0.94,5.94 4.67,6.38 5.92,6.38 1.64,0 4.94,-0.89 5.87,-5.83 0.5,-2.78 0.5,-6.58 0.5,-9.7 0,-3.75 0,-7.13 -0.54,-10.31 -0.75,-4.74 -3.6,-6.24 -5.83,-6.24 v 0 -1.09 c 2.69,0 6.47,1.04 8.67,5.78 1.59,3.44 1.85,7.31 1.85,11.25 z"
             inkscape:connector-curvature="0"
             style="fill:#000000;stroke-width:0" /><path
             id="path6106"
             d="m 585.83,430.06 v 0.75 l -0.01,0.74 -0.02,0.75 -0.03,0.74 -0.05,0.75 -0.06,0.74 -0.08,0.74 -0.09,0.73 -0.12,0.74 -0.14,0.72 -0.16,0.73 -0.19,0.71 -0.21,0.72 -0.25,0.7 -0.28,0.7 -0.15,0.35 -0.16,0.34 c -2.28,4.8 -6.37,5.6 -8.47,5.6 -2.98,0 -6.62,-1.3 -8.67,-5.94 -1.59,-3.44 -1.84,-7.33 -1.84,-11.31 0,-3.74 0.2,-8.22 2.25,-12 2.14,-4.03 5.78,-5.03 8.22,-5.03 v 1.09 c -1.94,0 -4.89,1.25 -5.79,6.03 -0.54,2.99 -0.54,7.56 -0.54,10.52 0,3.19 0,6.47 0.41,9.15 0.93,5.94 4.67,6.38 5.92,6.38 1.64,0 4.93,-0.89 5.87,-5.83 0.5,-2.78 0.5,-6.58 0.5,-9.7 0,-3.75 0,-7.13 -0.54,-10.31 -0.75,-4.74 -3.6,-6.24 -5.83,-6.24 v 0 -1.09 c 2.68,0 6.46,1.04 8.67,5.78 1.59,3.44 1.84,7.31 1.84,11.25 z"
             inkscape:connector-curvature="0"
             style="fill:#000000;stroke-width:0" /><path
             id="path6108"
             d="m 602.51,446.01 v 0.06 0.05 0.05 0.05 0.05 0.05 0.04 0.05 l -0.01,0.04 v 0.04 0.04 0.04 0.04 0.04 l -0.01,0.03 v 0.04 l -0.01,0.06 -0.01,0.06 -0.01,0.05 -0.01,0.05 -0.02,0.05 -0.02,0.04 -0.02,0.04 -0.02,0.04 -0.03,0.03 -0.04,0.02 -0.03,0.03 -0.04,0.02 -0.04,0.02 -0.03,0.01 -0.02,0.01 h -0.03 l -0.03,0.01 -0.02,0.01 h -0.03 l -0.03,0.01 h -0.04 l -0.03,0.01 h -0.03 -0.04 l -0.04,0.01 h -0.04 -0.04 -0.04 l -0.04,0.01 h -0.05 -0.04 -0.05 -0.05 -0.05 -0.05 c -3.1,-3.19 -7.47,-3.19 -9.07,-3.19 v -1.55 c 1,0 3.94,0 6.52,1.3 v -25.81 c 0,-1.8 -0.14,-2.39 -4.62,-2.39 h -1.6 v -1.55 c 1.75,0.16 6.08,0.16 8.06,0.16 2,0 6.33,0 8.08,-0.16 v 1.55 h -1.59 c -4.49,0 -4.64,0.54 -4.64,2.39 z"
             inkscape:connector-curvature="0"
             style="fill:#000000;stroke-width:0" /><path
             id="path6110"
             d="m 627.47,446.01 v 0.06 l -0.01,0.05 v 0.05 0.05 0.05 0.05 0.04 0.05 0.04 0.04 0.04 0.04 0.04 l -0.01,0.04 v 0.03 0.04 l -0.01,0.06 -0.01,0.06 -0.01,0.05 -0.02,0.05 -0.01,0.05 -0.02,0.04 -0.02,0.04 -0.03,0.04 -0.03,0.03 -0.03,0.02 -0.03,0.03 -0.04,0.02 -0.05,0.02 -0.02,0.01 -0.03,0.01 h -0.02 l -0.03,0.01 -0.03,0.01 h -0.03 l -0.03,0.01 h -0.03 l -0.03,0.01 h -0.04 -0.03 l -0.04,0.01 h -0.04 -0.04 -0.04 l -0.04,0.01 h -0.05 -0.05 -0.04 -0.05 -0.05 -0.06 c -3.09,-3.19 -7.47,-3.19 -9.06,-3.19 v -1.55 c 1,0 3.94,0 6.52,1.3 v -25.81 c 0,-1.8 -0.14,-2.39 -4.63,-2.39 h -1.59 v -1.55 c 1.75,0.16 6.08,0.16 8.06,0.16 2,0 6.33,0 8.08,-0.16 v 1.55 h -1.6 c -4.48,0 -4.63,0.54 -4.63,2.39 z"
             inkscape:connector-curvature="0"
             style="fill:#000000;stroke-width:0" /><path
             id="path6112"
             d="m 534.48,370.3 v 0.74 l -0.01,0.75 -0.02,0.75 -0.04,0.74 -0.04,0.75 -0.06,0.74 -0.08,0.74 -0.09,0.73 -0.12,0.73 -0.14,0.73 -0.16,0.72 -0.19,0.72 -0.22,0.72 -0.24,0.7 -0.28,0.7 -0.15,0.35 -0.16,0.34 c -2.28,4.8 -6.38,5.6 -8.47,5.6 -2.98,0 -6.62,-1.3 -8.67,-5.94 -1.59,-3.44 -1.84,-7.33 -1.84,-11.31 0,-3.74 0.2,-8.22 2.25,-12 2.14,-4.03 5.78,-5.03 8.22,-5.03 v 1.09 c -1.94,0 -4.9,1.25 -5.79,6.03 -0.54,2.99 -0.54,7.56 -0.54,10.52 0,3.18 0,6.47 0.4,9.15 0.94,5.94 4.68,6.38 5.93,6.38 1.63,0 4.93,-0.89 5.87,-5.83 0.5,-2.78 0.5,-6.58 0.5,-9.7 0,-3.75 0,-7.13 -0.55,-10.32 -0.75,-4.73 -3.59,-6.23 -5.82,-6.23 v 0 -1.09 c 2.68,0 6.46,1.04 8.67,5.78 1.59,3.43 1.84,7.31 1.84,11.25 z"
             inkscape:connector-curvature="0"
             style="fill:#000000;stroke-width:0" /><path
             id="path6114"
             d="m 546.08,357 -0.01,0.13 -0.01,0.14 -0.01,0.13 -0.03,0.13 -0.03,0.12 -0.03,0.13 -0.04,0.12 -0.05,0.12 -0.05,0.12 -0.06,0.11 -0.07,0.11 -0.06,0.11 -0.08,0.1 -0.08,0.1 -0.08,0.1 -0.09,0.09 -0.09,0.09 -0.09,0.08 -0.1,0.08 -0.11,0.07 -0.11,0.07 -0.11,0.07 -0.11,0.06 -0.12,0.05 -0.12,0.05 -0.12,0.04 -0.12,0.04 -0.13,0.03 -0.13,0.02 -0.13,0.02 -0.14,0.01 h -0.13 c -1.44,0 -2.64,-1.2 -2.64,-2.64 0,-1.44 1.2,-2.64 2.64,-2.64 1.45,0 2.64,1.2 2.64,2.64 z"
             inkscape:connector-curvature="0"
             style="fill:#000000;stroke-width:0" /><path
             id="path6116"
             d="m 573.23,370.3 v 0.74 l -0.01,0.75 -0.02,0.75 -0.03,0.74 -0.05,0.75 -0.06,0.74 -0.07,0.74 -0.1,0.73 -0.12,0.73 -0.13,0.73 -0.17,0.72 -0.19,0.72 -0.21,0.72 -0.25,0.7 -0.28,0.7 -0.15,0.35 -0.16,0.34 c -2.28,4.8 -6.37,5.6 -8.46,5.6 -2.99,0 -6.63,-1.3 -8.68,-5.94 -1.59,-3.44 -1.84,-7.33 -1.84,-11.31 0,-3.74 0.2,-8.22 2.25,-12 2.14,-4.03 5.78,-5.03 8.22,-5.03 v 1.09 c -1.94,0 -4.89,1.25 -5.78,6.03 -0.55,2.99 -0.55,7.56 -0.55,10.52 0,3.18 0,6.47 0.41,9.15 0.93,5.94 4.67,6.38 5.92,6.38 1.64,0 4.94,-0.89 5.87,-5.83 0.5,-2.78 0.5,-6.58 0.5,-9.7 0,-3.75 0,-7.13 -0.54,-10.32 -0.75,-4.73 -3.6,-6.23 -5.83,-6.23 v 0 -1.09 c 2.69,0 6.47,1.04 8.67,5.78 1.59,3.43 1.84,7.31 1.84,11.25 z"
             inkscape:connector-curvature="0"
             style="fill:#000000;stroke-width:0" /><path
             id="path6118"
             d="m 589.72,371.89 0.38,0.13 0.37,0.15 0.37,0.15 0.35,0.17 0.35,0.18 0.34,0.19 0.33,0.2 0.32,0.22 0.31,0.22 0.31,0.23 0.29,0.24 0.28,0.25 0.27,0.26 0.26,0.27 0.25,0.27 0.24,0.29 0.22,0.29 0.21,0.3 0.2,0.3 0.19,0.32 0.18,0.32 0.16,0.32 0.14,0.33 0.14,0.34 0.11,0.34 0.11,0.34 0.09,0.35 0.07,0.36 0.06,0.36 0.04,0.36 0.02,0.36 0.01,0.37 c 0,4.08 -4.39,6.88 -9.17,6.88 -5.03,0 -8.81,-3 -8.81,-6.78 0,-1.65 1.09,-2.6 2.54,-2.6 1.53,0 2.53,1.1 2.53,2.55 0,2.48 -2.34,2.48 -3.07,2.48 1.53,2.44 4.82,3.1 6.62,3.1 2.03,0 4.78,-1.1 4.78,-5.58 0,-0.61 -0.11,-3.49 -1.4,-5.69 -1.49,-2.39 -3.19,-2.53 -4.43,-2.59 -0.4,-0.05 -1.59,-0.14 -1.95,-0.14 -0.39,-0.05 -0.75,-0.1 -0.75,-0.6 0,-0.54 0.36,-0.54 1.2,-0.54 h 2.19 c 4.1,0 5.94,-3.39 5.94,-8.28 0,-6.77 -3.44,-8.22 -5.64,-8.22 -2.14,0 -5.87,0.84 -7.61,3.78 1.74,-0.24 3.28,0.86 3.28,2.75 0,1.79 -1.34,2.78 -2.79,2.78 -1.19,0 -2.79,-0.69 -2.79,-2.89 0,-4.53 4.63,-7.81 10.07,-7.81 6.07,0 10.6,4.53 10.6,9.61 0,4.09 -3.13,7.96 -8.31,9.01 z"
             inkscape:connector-curvature="0"
             style="fill:#000000;stroke-width:0" /><path
             id="path6120"
             d="m 615.62,372.39 0.33,0.18 0.33,0.18 0.32,0.18 0.31,0.19 0.3,0.19 0.3,0.2 0.29,0.2 0.28,0.2 0.27,0.21 0.26,0.22 0.25,0.22 0.24,0.22 0.24,0.22 0.22,0.24 0.22,0.23 0.2,0.24 0.19,0.24 0.19,0.25 0.17,0.25 0.16,0.26 0.15,0.26 0.13,0.27 0.13,0.27 0.11,0.27 0.1,0.28 0.09,0.28 0.07,0.28 0.07,0.29 0.04,0.29 0.04,0.3 0.02,0.3 0.01,0.31 c 0,4.59 -4.44,7.44 -8.97,7.44 l -0.05,-1.25 c 3.64,0 6.83,-2.6 6.83,-6.19 0,-2.83 -1.95,-5.22 -4.94,-6.97 l -6.17,3.98 c -2.3,1.5 -2.5,3.19 -2.5,4.04 0,3.04 3.25,5.14 6.78,5.14 l 0.05,1.25 c -4.98,0 -9.02,-3.69 -9.02,-8.33 0,-0.89 0.1,-3.14 2.19,-5.49 0.55,-0.59 2.39,-1.84 3.64,-2.68 l 1.14,-0.75 6.14,-3.88 c 1.39,-0.95 3.74,-2.45 3.74,-5.48 0,-3.69 -3.74,-6.28 -7.83,-6.28 -4.28,0 -7.88,3.09 -7.88,7.22 0,2.89 1.6,6.07 5.83,8.42 v 0 l -1.14,0.75 c -2.89,-1.44 -7.17,-4.24 -7.17,-9.17 0,-5.29 5.08,-8.61 10.31,-8.61 5.63,0 10.36,4.14 10.36,9.46 0,1.79 -0.54,4.04 -2.44,6.13 -0.95,1.05 -1.75,1.55 -4.93,3.53 z"
             inkscape:connector-curvature="0"
             style="fill:#000000;stroke-width:0" /><path
             id="path6122"
             d="m 522.12,310.54 v 0.75 l -0.01,0.74 -0.02,0.75 -0.04,0.74 -0.04,0.75 -0.06,0.74 -0.08,0.74 -0.09,0.73 -0.12,0.74 -0.14,0.72 -0.16,0.73 -0.19,0.71 -0.21,0.72 -0.25,0.7 -0.28,0.7 -0.15,0.35 -0.16,0.35 c -2.28,4.79 -6.37,5.59 -8.47,5.59 -2.98,0 -6.62,-1.3 -8.67,-5.94 -1.59,-3.44 -1.84,-7.33 -1.84,-11.31 0,-3.74 0.2,-8.22 2.25,-12 2.14,-4.03 5.78,-5.03 8.22,-5.03 v 1.09 c -1.94,0 -4.9,1.25 -5.79,6.03 -0.54,2.99 -0.54,7.57 -0.54,10.52 0,3.19 0,6.47 0.4,9.15 0.94,5.94 4.68,6.38 5.93,6.38 1.64,0 4.93,-0.89 5.87,-5.83 0.5,-2.78 0.5,-6.58 0.5,-9.7 0,-3.75 0,-7.13 -0.55,-10.31 -0.75,-4.74 -3.59,-6.24 -5.82,-6.24 v 0 -1.09 c 2.68,0 6.46,1.04 8.67,5.78 1.59,3.44 1.84,7.31 1.84,11.25 z"
             inkscape:connector-curvature="0"
             style="fill:#000000;stroke-width:0" /><path
             id="path6124"
             d="m 533.72,297.24 v 0.14 l -0.01,0.13 -0.02,0.13 -0.02,0.13 -0.03,0.13 -0.04,0.12 -0.04,0.12 -0.05,0.12 -0.05,0.12 -0.06,0.11 -0.06,0.11 -0.07,0.11 -0.08,0.1 -0.08,0.1 -0.08,0.1 -0.09,0.09 -0.09,0.09 -0.09,0.08 -0.1,0.08 -0.11,0.08 -0.11,0.07 -0.11,0.06 -0.11,0.06 -0.12,0.05 -0.12,0.05 -0.12,0.04 -0.12,0.04 -0.13,0.03 -0.13,0.02 -0.13,0.02 -0.14,0.01 h -0.13 c -1.44,0 -2.64,-1.2 -2.64,-2.64 0,-1.44 1.2,-2.64 2.64,-2.64 1.45,0 2.64,1.2 2.64,2.64 z"
             inkscape:connector-curvature="0"
             style="fill:#000000;stroke-width:0" /><path
             id="path6126"
             d="m 560.88,310.54 -0.01,0.75 -0.01,0.74 -0.02,0.75 -0.03,0.74 -0.05,0.75 -0.06,0.74 -0.07,0.74 -0.1,0.73 -0.11,0.74 -0.14,0.72 -0.17,0.73 -0.18,0.71 -0.22,0.72 -0.25,0.7 -0.27,0.7 -0.16,0.35 -0.15,0.35 c -2.29,4.79 -6.38,5.59 -8.47,5.59 -2.99,0 -6.63,-1.3 -8.68,-5.94 -1.59,-3.44 -1.84,-7.33 -1.84,-11.31 0,-3.74 0.2,-8.22 2.25,-12 2.14,-4.03 5.78,-5.03 8.22,-5.03 v 1.09 c -1.94,0 -4.89,1.25 -5.78,6.03 -0.55,2.99 -0.55,7.57 -0.55,10.52 0,3.19 0,6.47 0.41,9.15 0.94,5.94 4.67,6.38 5.92,6.38 1.64,0 4.94,-0.89 5.87,-5.83 0.5,-2.78 0.5,-6.58 0.5,-9.7 0,-3.75 0,-7.13 -0.54,-10.31 -0.75,-4.74 -3.6,-6.24 -5.83,-6.24 v 0 -1.09 c 2.69,0 6.47,1.04 8.67,5.78 1.59,3.44 1.85,7.31 1.85,11.25 z"
             inkscape:connector-curvature="0"
             style="fill:#000000;stroke-width:0" /><path
             id="path6128"
             d="m 585.83,310.54 v 0.75 l -0.01,0.74 -0.02,0.75 -0.03,0.74 -0.05,0.75 -0.06,0.74 -0.08,0.74 -0.09,0.73 -0.12,0.74 -0.14,0.72 -0.16,0.73 -0.19,0.71 -0.21,0.72 -0.25,0.7 -0.28,0.7 -0.15,0.35 -0.16,0.35 c -2.28,4.79 -6.37,5.59 -8.47,5.59 -2.98,0 -6.62,-1.3 -8.67,-5.94 -1.59,-3.44 -1.84,-7.33 -1.84,-11.31 0,-3.74 0.2,-8.22 2.25,-12 2.14,-4.03 5.78,-5.03 8.22,-5.03 v 1.09 c -1.94,0 -4.89,1.25 -5.79,6.03 -0.54,2.99 -0.54,7.57 -0.54,10.52 0,3.19 0,6.47 0.41,9.15 0.93,5.94 4.67,6.38 5.92,6.38 1.64,0 4.93,-0.89 5.87,-5.83 0.5,-2.78 0.5,-6.58 0.5,-9.7 0,-3.75 0,-7.13 -0.54,-10.31 -0.75,-4.74 -3.6,-6.24 -5.83,-6.24 v 0 -1.09 c 2.68,0 6.46,1.04 8.67,5.78 1.59,3.44 1.84,7.31 1.84,11.25 z"
             inkscape:connector-curvature="0"
             style="fill:#000000;stroke-width:0" /><path
             id="path6130"
             d="m 594.2,298.45 5.28,5.12 c 7.76,6.88 10.76,9.56 10.76,14.55 0,5.68 -4.48,9.67 -10.56,9.67 -5.64,0 -9.33,-4.59 -9.33,-9.03 0,-2.78 2.5,-2.78 2.64,-2.78 0.86,0 2.6,0.59 2.6,2.64 0,1.29 -0.89,2.59 -2.64,2.59 -0.4,0 -0.5,0 -0.65,-0.05 1.15,3.24 3.83,5.08 6.72,5.08 4.53,0 6.69,-4.04 6.69,-8.12 0,-3.99 -2.5,-7.92 -5.23,-11.02 l -9.57,-10.65 c -0.56,-0.55 -0.56,-0.65 -0.56,-1.85 h 18.49 l 1.4,8.67 h -1.25 c -0.25,-1.5 -0.59,-3.68 -1.09,-4.43 -0.36,-0.39 -3.64,-0.39 -4.74,-0.39 z"
             inkscape:connector-curvature="0"
             style="fill:#000000;stroke-width:0" /><path
             id="path6132"
             d="m 627.47,326.49 v 0.06 l -0.01,0.05 v 0.05 0.05 0.05 0.05 0.04 0.05 0.04 0.04 0.04 0.04 0.04 l -0.01,0.04 v 0.03 0.04 l -0.01,0.06 -0.01,0.06 -0.01,0.05 -0.02,0.05 -0.01,0.05 -0.02,0.04 -0.02,0.04 -0.03,0.04 -0.03,0.03 -0.03,0.03 -0.03,0.02 -0.04,0.02 -0.05,0.02 -0.02,0.01 -0.03,0.01 h -0.02 l -0.03,0.01 -0.03,0.01 h -0.03 l -0.03,0.01 h -0.03 l -0.03,0.01 h -0.04 -0.03 l -0.04,0.01 h -0.04 -0.04 -0.04 l -0.04,0.01 h -0.05 -0.05 -0.04 -0.05 -0.05 -0.06 c -3.09,-3.19 -7.47,-3.19 -9.06,-3.19 v -1.55 c 1,0 3.94,0 6.52,1.3 v -25.81 c 0,-1.8 -0.14,-2.39 -4.63,-2.39 h -1.59 v -1.55 c 1.75,0.16 6.08,0.16 8.06,0.16 2,0 6.33,0 8.08,-0.16 v 1.55 h -1.6 c -4.48,0 -4.63,0.55 -4.63,2.39 z"
             inkscape:connector-curvature="0"
             style="fill:#000000;stroke-width:0" /><path
             id="path6134"
             d="m 666.6,368.27 -0.01,2.82 -0.05,2.74 -0.07,2.67 -0.1,2.6 -0.13,2.52 -0.15,2.44 -0.17,2.38 -0.19,2.29 -0.21,2.23 -0.22,2.15 -0.24,2.07 -0.26,2.01 -0.26,1.92 -0.27,1.86 -0.29,1.77 -0.28,1.71 -0.3,1.63 -0.29,1.55 -0.3,1.48 -0.3,1.41 -0.29,1.33 -0.29,1.26 -0.28,1.18 -0.28,1.11 -0.27,1.03 -0.25,0.96 -0.24,0.89 -0.23,0.8 -0.22,0.74 -0.19,0.66 -0.18,0.58 -0.15,0.51 c -3.39,11.06 -8.92,22.72 -17.25,32.98 -0.75,0.91 -0.94,1.16 -1.14,1.25 -0.1,0.05 -0.16,0.1 -0.96,0.1 -0.73,0 -1.14,0 -1.14,-0.5 0,-0.1 0,-0.19 0.64,-1.1 17.35,-24.2 21.24,-54.09 21.28,-87.82 0,-0.71 0.3,-0.71 1.4,-0.71 h 2.75 c 1.04,0 1.34,0 1.38,0.55 z"
             inkscape:connector-curvature="0"
             style="fill:#000000;stroke-width:0" /><path
             id="path6136"
             d="m 666.6,366.26 v 0.05 l -0.01,0.04 v 0.05 l -0.01,0.04 -0.02,0.04 -0.01,0.03 -0.02,0.03 -0.01,0.03 -0.02,0.03 -0.03,0.03 -0.02,0.02 -0.03,0.02 -0.03,0.02 -0.03,0.02 -0.04,0.01 -0.03,0.02 -0.05,0.01 -0.04,0.01 -0.05,0.01 -0.05,0.01 h -0.05 l -0.06,0.01 h -0.06 l -0.06,0.01 h -0.07 -0.07 -0.08 -0.08 -0.08 -0.09 -0.09 -0.09 -2.75 c -1.1,0 -1.4,0 -1.4,-0.68 0,-5.14 -0.04,-17 -1.34,-29.39 -2.69,-25.77 -9.31,-43.6 -20.23,-58.89 -0.35,-0.46 -0.35,-0.55 -0.35,-0.66 0,-0.5 0.41,-0.5 1.14,-0.5 0.8,0 0.91,0 1,0.11 0.21,0.14 6.53,7.42 11.56,17.44 6.58,13.14 10.71,28.25 12.55,46.37 0.16,1.55 1.2,11.91 1.2,23.72 z"
             inkscape:connector-curvature="0"
             style="fill:#000000;stroke-width:0" /></g>      </g>
      <g
         id="g6597"
         transform="matrix(0.23896508,0,0,0.23896508,32.053796,76.01711)">
        <g
           word-spacing="normal"
           letter-spacing="normal"
           font-size-adjust="none"
           font-stretch="normal"
           font-weight="normal"
           font-variant="normal"
           font-style="normal"
           stroke-miterlimit="10.433"
           xml:space="preserve"
           transform="matrix(0.3,0,0,-0.3,-52.5,222.75)"
           id="g6595"
           style="font-style:normal;font-variant:normal;font-weight:normal;font-stretch:normal;letter-spacing:normal;word-spacing:normal;text-anchor:start;fill:none;fill-opacity:1;fill-rule:evenodd;stroke:#000000;stroke-linecap:butt;stroke-linejoin:miter;stroke-miterlimit:10.43299961;stroke-dasharray:none;stroke-dashoffset:0;stroke-opacity:1"><path
             id="path6565"
             d="m 474.16,365.77 h 0.1 0.1 0.09 0.08 l 0.09,0.01 h 0.07 0.08 0.07 l 0.07,0.01 h 0.06 l 0.06,0.01 0.05,0.01 0.05,0.01 0.05,0.01 0.04,0.02 0.05,0.01 0.03,0.02 0.04,0.02 0.03,0.02 0.03,0.02 0.03,0.03 0.02,0.03 0.02,0.03 0.02,0.04 0.01,0.04 0.02,0.04 0.01,0.05 0.01,0.04 v 0.06 l 0.01,0.05 v 0.06 0.07 c 0.09,34.92 4.13,63.92 21.56,88.28 0.36,0.45 0.36,0.54 0.36,0.64 0,0.5 -0.36,0.5 -1.15,0.5 -0.8,0 -0.89,0 -0.99,-0.1 -0.2,-0.15 -6.53,-7.42 -11.56,-17.43 -6.58,-13.16 -10.72,-28.25 -12.56,-46.39 -0.14,-1.53 -1.19,-11.91 -1.19,-23.71 v -1.95 c 0.05,-0.55 0.34,-0.55 1.39,-0.55 z"
             inkscape:connector-curvature="0"
             style="fill:#000000;stroke-width:0" /><path
             id="path6567"
             d="m 471.41,366.8 h -0.1 -0.09 -0.09 -0.08 -0.08 -0.07 -0.07 -0.07 l -0.07,-0.01 h -0.06 l -0.05,-0.01 h -0.06 l -0.05,-0.01 -0.05,-0.01 -0.04,-0.01 -0.04,-0.01 -0.04,-0.02 -0.03,-0.01 -0.04,-0.02 -0.03,-0.02 -0.02,-0.02 -0.03,-0.02 -0.02,-0.03 -0.02,-0.03 -0.02,-0.03 -0.01,-0.03 -0.02,-0.03 -0.01,-0.04 -0.01,-0.04 -0.01,-0.05 v -0.04 l -0.01,-0.05 v -1.94 c 0,-30.44 5.42,-48.28 6.97,-53.31 3.39,-11.06 8.92,-22.72 17.25,-32.99 0.73,-0.89 0.94,-1.14 1.14,-1.23 0.09,-0.06 0.14,-0.11 0.94,-0.11 0.79,0 1.15,0 1.15,0.5 0,0.11 0,0.2 -0.29,0.66 -16.6,23.01 -21.58,50.71 -21.63,88.28 0,0.68 -0.3,0.68 -1.39,0.68 z"
             inkscape:connector-curvature="0"
             style="fill:#000000;stroke-width:0" /><path
             id="path6569"
             d="m 570.48,422.34 v -4.33 c 0,-1.8 -0.09,-2.34 -3.78,-2.34 h -1.05 v -1.55 c 2.05,0.16 4.64,0.16 6.74,0.16 2.09,0 4.73,0 6.76,-0.16 v 1.55 h -1.05 c -3.68,0 -3.78,0.54 -3.78,2.34 v 4.33 h 4.99 v 1.55 h -4.99 v 22.67 c 0,1 0,1.3 -0.79,1.3 -0.46,0 -0.6,0 -1,-0.61 l -15.3,-23.36 h 1.41 l 12.15,18.57 v -18.57 h -12.15 -1.41 v -1.55 z"
             inkscape:connector-curvature="0"
             style="fill:#000000;stroke-width:0" /><path
             id="path6571"
             d="m 546.96,370.3 v 0.74 l -0.01,0.75 -0.02,0.75 -0.04,0.74 -0.04,0.75 -0.06,0.74 -0.08,0.74 -0.09,0.73 -0.12,0.73 -0.14,0.73 -0.16,0.72 -0.19,0.72 -0.21,0.72 -0.25,0.7 -0.28,0.7 -0.15,0.35 -0.16,0.34 c -2.28,4.8 -6.37,5.6 -8.47,5.6 -2.98,0 -6.62,-1.3 -8.67,-5.94 -1.59,-3.44 -1.84,-7.33 -1.84,-11.31 0,-3.74 0.2,-8.22 2.25,-12 2.14,-4.03 5.78,-5.03 8.22,-5.03 v 1.09 c -1.94,0 -4.9,1.25 -5.79,6.03 -0.54,2.99 -0.54,7.56 -0.54,10.52 0,3.18 0,6.47 0.4,9.15 0.94,5.94 4.68,6.38 5.93,6.38 1.64,0 4.93,-0.89 5.87,-5.83 0.5,-2.78 0.5,-6.58 0.5,-9.7 0,-3.75 0,-7.13 -0.55,-10.32 -0.75,-4.73 -3.59,-6.23 -5.82,-6.23 v 0 -1.09 c 2.68,0 6.46,1.04 8.67,5.78 1.59,3.43 1.84,7.31 1.84,11.25 z"
             inkscape:connector-curvature="0"
             style="fill:#000000;stroke-width:0" /><path
             id="path6573"
             d="m 558.56,357 v 0.13 l -0.01,0.14 -0.02,0.13 -0.02,0.13 -0.03,0.12 -0.04,0.13 -0.04,0.12 -0.05,0.12 -0.05,0.12 -0.06,0.11 -0.06,0.11 -0.07,0.11 -0.08,0.1 -0.08,0.1 -0.08,0.1 -0.09,0.09 -0.09,0.09 -0.09,0.08 -0.1,0.08 -0.11,0.07 -0.11,0.07 -0.11,0.07 -0.11,0.06 -0.12,0.05 -0.12,0.05 -0.12,0.04 -0.12,0.04 -0.13,0.03 -0.13,0.02 -0.13,0.02 -0.14,0.01 h -0.13 c -1.44,0 -2.64,-1.2 -2.64,-2.64 0,-1.44 1.2,-2.64 2.64,-2.64 1.45,0 2.64,1.2 2.64,2.64 z"
             inkscape:connector-curvature="0"
             style="fill:#000000;stroke-width:0" /><path
             id="path6575"
             d="m 585.72,370.3 -0.01,0.74 -0.01,0.75 -0.02,0.75 -0.03,0.74 -0.05,0.75 -0.06,0.74 -0.07,0.74 -0.1,0.73 -0.11,0.73 -0.14,0.73 -0.17,0.72 -0.18,0.72 -0.22,0.72 -0.25,0.7 -0.27,0.7 -0.16,0.35 -0.15,0.34 c -2.29,4.8 -6.38,5.6 -8.47,5.6 -2.99,0 -6.63,-1.3 -8.68,-5.94 -1.59,-3.44 -1.84,-7.33 -1.84,-11.31 0,-3.74 0.2,-8.22 2.25,-12 2.14,-4.03 5.78,-5.03 8.22,-5.03 v 1.09 c -1.94,0 -4.89,1.25 -5.78,6.03 -0.55,2.99 -0.55,7.56 -0.55,10.52 0,3.18 0,6.47 0.41,9.15 0.94,5.94 4.67,6.38 5.92,6.38 1.64,0 4.94,-0.89 5.87,-5.83 0.5,-2.78 0.5,-6.58 0.5,-9.7 0,-3.75 0,-7.13 -0.54,-10.32 -0.75,-4.73 -3.6,-6.23 -5.83,-6.23 v 0 -1.09 c 2.69,0 6.47,1.04 8.67,5.78 1.6,3.43 1.85,7.31 1.85,11.25 z"
             inkscape:connector-curvature="0"
             style="fill:#000000;stroke-width:0" /><path
             id="path6577"
             d="m 602.39,362.58 v -4.33 c 0,-1.8 -0.09,-2.34 -3.78,-2.34 h -1.05 v -1.55 c 2.05,0.16 4.64,0.16 6.74,0.16 2.09,0 4.73,0 6.76,-0.16 v 1.55 h -1.04 c -3.69,0 -3.79,0.54 -3.79,2.34 v 4.33 h 4.99 v 1.54 h -4.99 v 22.68 c 0,1 0,1.29 -0.79,1.29 -0.46,0 -0.6,0 -1,-0.61 l -15.3,-23.36 h 1.41 l 12.15,18.58 v -18.58 h -12.15 -1.41 v -1.54 z"
             inkscape:connector-curvature="0"
             style="fill:#000000;stroke-width:0" /><path
             id="path6579"
             d="m 522.12,310.54 v 0.75 l -0.01,0.74 -0.02,0.75 -0.04,0.74 -0.04,0.75 -0.06,0.74 -0.08,0.74 -0.09,0.73 -0.12,0.74 -0.14,0.72 -0.16,0.73 -0.19,0.71 -0.21,0.72 -0.25,0.7 -0.28,0.7 -0.15,0.35 -0.16,0.35 c -2.28,4.79 -6.37,5.59 -8.47,5.59 -2.98,0 -6.62,-1.3 -8.67,-5.94 -1.59,-3.44 -1.84,-7.33 -1.84,-11.31 0,-3.74 0.2,-8.22 2.25,-12 2.14,-4.03 5.78,-5.03 8.22,-5.03 v 1.09 c -1.94,0 -4.9,1.25 -5.79,6.03 -0.54,2.99 -0.54,7.57 -0.54,10.52 0,3.19 0,6.47 0.4,9.15 0.94,5.94 4.68,6.38 5.93,6.38 1.64,0 4.93,-0.89 5.87,-5.83 0.5,-2.78 0.5,-6.58 0.5,-9.7 0,-3.75 0,-7.13 -0.55,-10.31 -0.75,-4.74 -3.59,-6.24 -5.82,-6.24 v 0 -1.09 c 2.68,0 6.46,1.04 8.67,5.78 1.59,3.44 1.84,7.31 1.84,11.25 z"
             inkscape:connector-curvature="0"
             style="fill:#000000;stroke-width:0" /><path
             id="path6581"
             d="m 533.72,297.24 v 0.14 l -0.01,0.13 -0.02,0.13 -0.02,0.13 -0.03,0.13 -0.04,0.12 -0.04,0.12 -0.05,0.12 -0.05,0.12 -0.06,0.11 -0.06,0.11 -0.07,0.11 -0.08,0.1 -0.08,0.1 -0.08,0.1 -0.09,0.09 -0.09,0.09 -0.09,0.08 -0.1,0.08 -0.11,0.08 -0.11,0.07 -0.11,0.06 -0.11,0.06 -0.12,0.05 -0.12,0.05 -0.12,0.04 -0.12,0.04 -0.13,0.03 -0.13,0.02 -0.13,0.02 -0.14,0.01 h -0.13 c -1.44,0 -2.64,-1.2 -2.64,-2.64 0,-1.44 1.2,-2.64 2.64,-2.64 1.45,0 2.64,1.2 2.64,2.64 z"
             inkscape:connector-curvature="0"
             style="fill:#000000;stroke-width:0" /><path
             id="path6583"
             d="m 560.88,310.54 -0.01,0.75 -0.01,0.74 -0.02,0.75 -0.03,0.74 -0.05,0.75 -0.06,0.74 -0.07,0.74 -0.1,0.73 -0.11,0.74 -0.14,0.72 -0.17,0.73 -0.18,0.71 -0.22,0.72 -0.25,0.7 -0.27,0.7 -0.16,0.35 -0.15,0.35 c -2.29,4.79 -6.38,5.59 -8.47,5.59 -2.99,0 -6.63,-1.3 -8.68,-5.94 -1.59,-3.44 -1.84,-7.33 -1.84,-11.31 0,-3.74 0.2,-8.22 2.25,-12 2.14,-4.03 5.78,-5.03 8.22,-5.03 v 1.09 c -1.94,0 -4.89,1.25 -5.78,6.03 -0.55,2.99 -0.55,7.57 -0.55,10.52 0,3.19 0,6.47 0.41,9.15 0.94,5.94 4.67,6.38 5.92,6.38 1.64,0 4.94,-0.89 5.87,-5.83 0.5,-2.78 0.5,-6.58 0.5,-9.7 0,-3.75 0,-7.13 -0.54,-10.31 -0.75,-4.74 -3.6,-6.24 -5.83,-6.24 v 0 -1.09 c 2.69,0 6.47,1.04 8.67,5.78 1.59,3.44 1.85,7.31 1.85,11.25 z"
             inkscape:connector-curvature="0"
             style="fill:#000000;stroke-width:0" /><path
             id="path6585"
             d="m 585.83,310.54 v 0.75 l -0.01,0.74 -0.02,0.75 -0.03,0.74 -0.05,0.75 -0.06,0.74 -0.08,0.74 -0.09,0.73 -0.12,0.74 -0.14,0.72 -0.16,0.73 -0.19,0.71 -0.21,0.72 -0.25,0.7 -0.28,0.7 -0.15,0.35 -0.16,0.35 c -2.28,4.79 -6.37,5.59 -8.47,5.59 -2.98,0 -6.62,-1.3 -8.67,-5.94 -1.59,-3.44 -1.84,-7.33 -1.84,-11.31 0,-3.74 0.2,-8.22 2.25,-12 2.14,-4.03 5.78,-5.03 8.22,-5.03 v 1.09 c -1.94,0 -4.89,1.25 -5.79,6.03 -0.54,2.99 -0.54,7.57 -0.54,10.52 0,3.19 0,6.47 0.41,9.15 0.93,5.94 4.67,6.38 5.92,6.38 1.64,0 4.93,-0.89 5.87,-5.83 0.5,-2.78 0.5,-6.58 0.5,-9.7 0,-3.75 0,-7.13 -0.54,-10.31 -0.75,-4.74 -3.6,-6.24 -5.83,-6.24 v 0 -1.09 c 2.68,0 6.46,1.04 8.67,5.78 1.59,3.44 1.84,7.31 1.84,11.25 z"
             inkscape:connector-curvature="0"
             style="fill:#000000;stroke-width:0" /><path
             id="path6587"
             d="m 594.2,298.45 5.28,5.12 c 7.76,6.88 10.76,9.56 10.76,14.55 0,5.68 -4.48,9.67 -10.56,9.67 -5.64,0 -9.33,-4.59 -9.33,-9.03 0,-2.78 2.5,-2.78 2.64,-2.78 0.86,0 2.6,0.59 2.6,2.64 0,1.29 -0.89,2.59 -2.64,2.59 -0.4,0 -0.5,0 -0.65,-0.05 1.15,3.24 3.83,5.08 6.72,5.08 4.53,0 6.69,-4.04 6.69,-8.12 0,-3.99 -2.5,-7.92 -5.23,-11.02 l -9.57,-10.65 c -0.56,-0.55 -0.56,-0.65 -0.56,-1.85 h 18.49 l 1.4,8.67 h -1.25 c -0.25,-1.5 -0.59,-3.68 -1.09,-4.43 -0.36,-0.39 -3.64,-0.39 -4.74,-0.39 z"
             inkscape:connector-curvature="0"
             style="fill:#000000;stroke-width:0" /><path
             id="path6589"
             d="m 627.47,326.49 v 0.06 l -0.01,0.05 v 0.05 0.05 0.05 0.05 0.04 0.05 0.04 0.04 0.04 0.04 0.04 l -0.01,0.04 v 0.03 0.04 l -0.01,0.06 -0.01,0.06 -0.01,0.05 -0.02,0.05 -0.01,0.05 -0.02,0.04 -0.02,0.04 -0.03,0.04 -0.03,0.03 -0.03,0.03 -0.03,0.02 -0.04,0.02 -0.05,0.02 -0.02,0.01 -0.03,0.01 h -0.02 l -0.03,0.01 -0.03,0.01 h -0.03 l -0.03,0.01 h -0.03 l -0.03,0.01 h -0.04 -0.03 l -0.04,0.01 h -0.04 -0.04 -0.04 l -0.04,0.01 h -0.05 -0.05 -0.04 -0.05 -0.05 -0.06 c -3.09,-3.19 -7.47,-3.19 -9.06,-3.19 v -1.55 c 1,0 3.94,0 6.52,1.3 v -25.81 c 0,-1.8 -0.14,-2.39 -4.63,-2.39 h -1.59 v -1.55 c 1.75,0.16 6.08,0.16 8.06,0.16 2,0 6.33,0 8.08,-0.16 v 1.55 h -1.6 c -4.48,0 -4.63,0.55 -4.63,2.39 z"
             inkscape:connector-curvature="0"
             style="fill:#000000;stroke-width:0" /><path
             id="path6591"
             d="m 666.6,368.27 -0.01,2.82 -0.05,2.74 -0.07,2.67 -0.1,2.6 -0.13,2.52 -0.15,2.44 -0.17,2.38 -0.19,2.29 -0.21,2.23 -0.22,2.15 -0.24,2.07 -0.26,2.01 -0.26,1.92 -0.27,1.86 -0.29,1.77 -0.28,1.71 -0.3,1.63 -0.29,1.55 -0.3,1.48 -0.3,1.41 -0.29,1.33 -0.29,1.26 -0.28,1.18 -0.28,1.11 -0.27,1.03 -0.25,0.96 -0.24,0.89 -0.23,0.8 -0.22,0.74 -0.19,0.66 -0.18,0.58 -0.15,0.51 c -3.39,11.06 -8.92,22.72 -17.25,32.98 -0.75,0.91 -0.94,1.16 -1.14,1.25 -0.1,0.05 -0.16,0.1 -0.96,0.1 -0.73,0 -1.14,0 -1.14,-0.5 0,-0.1 0,-0.19 0.64,-1.1 17.35,-24.2 21.24,-54.09 21.28,-87.82 0,-0.71 0.3,-0.71 1.4,-0.71 h 2.75 c 1.04,0 1.34,0 1.38,0.55 z"
             inkscape:connector-curvature="0"
             style="fill:#000000;stroke-width:0" /><path
             id="path6593"
             d="m 666.6,366.26 v 0.05 l -0.01,0.04 v 0.05 l -0.01,0.04 -0.02,0.04 -0.01,0.03 -0.02,0.03 -0.01,0.03 -0.02,0.03 -0.03,0.03 -0.02,0.02 -0.03,0.02 -0.03,0.02 -0.03,0.02 -0.04,0.01 -0.03,0.02 -0.05,0.01 -0.04,0.01 -0.05,0.01 -0.05,0.01 h -0.05 l -0.06,0.01 h -0.06 l -0.06,0.01 h -0.07 -0.07 -0.08 -0.08 -0.08 -0.09 -0.09 -0.09 -2.75 c -1.1,0 -1.4,0 -1.4,-0.68 0,-5.14 -0.04,-17 -1.34,-29.39 -2.69,-25.77 -9.31,-43.6 -20.23,-58.89 -0.35,-0.46 -0.35,-0.55 -0.35,-0.66 0,-0.5 0.41,-0.5 1.14,-0.5 0.8,0 0.91,0 1,0.11 0.21,0.14 6.53,7.42 11.56,17.44 6.58,13.14 10.71,28.25 12.55,46.37 0.16,1.55 1.2,11.91 1.2,23.72 z"
             inkscape:connector-curvature="0"
             style="fill:#000000;stroke-width:0" /></g>      </g>
      <g
         transform="matrix(0.23896508,0,0,0.23896508,-11.279781,76.01711)"
         id="g6841">
        <g
           style="font-style:normal;font-variant:normal;font-weight:normal;font-stretch:normal;letter-spacing:normal;word-spacing:normal;text-anchor:start;fill:none;fill-opacity:1;fill-rule:evenodd;stroke:#000000;stroke-linecap:butt;stroke-linejoin:miter;stroke-miterlimit:10.43299961;stroke-dasharray:none;stroke-dashoffset:0;stroke-opacity:1"
           id="g6839"
           transform="matrix(0.3,0,0,-0.3,-52.5,222.75)"
           xml:space="preserve"
           stroke-miterlimit="10.433"
           font-style="normal"
           font-variant="normal"
           font-weight="normal"
           font-stretch="normal"
           font-size-adjust="none"
           letter-spacing="normal"
           word-spacing="normal"><path
             style="fill:#000000;stroke-width:0"
             inkscape:connector-curvature="0"
             d="m 474.16,365.77 h 0.1 0.1 0.09 0.08 l 0.09,0.01 h 0.07 0.08 0.07 l 0.07,0.01 h 0.06 l 0.06,0.01 0.05,0.01 0.05,0.01 0.05,0.01 0.04,0.02 0.05,0.01 0.03,0.02 0.04,0.02 0.03,0.02 0.03,0.02 0.03,0.03 0.02,0.03 0.02,0.03 0.02,0.04 0.01,0.04 0.02,0.04 0.01,0.05 0.01,0.04 v 0.06 l 0.01,0.05 v 0.06 0.07 c 0.09,34.92 4.13,63.92 21.56,88.28 0.36,0.45 0.36,0.54 0.36,0.64 0,0.5 -0.36,0.5 -1.15,0.5 -0.8,0 -0.89,0 -0.99,-0.1 -0.2,-0.15 -6.53,-7.42 -11.56,-17.43 -6.58,-13.16 -10.72,-28.25 -12.56,-46.39 -0.14,-1.53 -1.19,-11.91 -1.19,-23.71 v -1.95 c 0.05,-0.55 0.34,-0.55 1.39,-0.55 z"
             id="path6813" /><path
             style="fill:#000000;stroke-width:0"
             inkscape:connector-curvature="0"
             d="m 471.41,366.8 h -0.1 -0.09 -0.09 -0.08 -0.08 -0.07 -0.07 -0.07 l -0.07,-0.01 h -0.06 l -0.05,-0.01 h -0.06 l -0.05,-0.01 -0.05,-0.01 -0.04,-0.01 -0.04,-0.01 -0.04,-0.02 -0.03,-0.01 -0.04,-0.02 -0.03,-0.02 -0.02,-0.02 -0.03,-0.02 -0.02,-0.03 -0.02,-0.03 -0.02,-0.03 -0.01,-0.03 -0.02,-0.03 -0.01,-0.04 -0.01,-0.04 -0.01,-0.05 v -0.04 l -0.01,-0.05 v -1.94 c 0,-30.44 5.42,-48.28 6.97,-53.31 3.39,-11.06 8.92,-22.72 17.25,-32.99 0.73,-0.89 0.94,-1.14 1.14,-1.23 0.09,-0.06 0.14,-0.11 0.94,-0.11 0.79,0 1.15,0 1.15,0.5 0,0.11 0,0.2 -0.29,0.66 -16.6,23.01 -21.58,50.71 -21.63,88.28 0,0.68 -0.3,0.68 -1.39,0.68 z"
             id="path6815" /><path
             style="fill:#000000;stroke-width:0"
             inkscape:connector-curvature="0"
             d="m 513.84,446.01 v 0.06 0.05 0.05 0.05 0.05 0.05 0.04 0.05 0.04 0.04 l -0.01,0.04 v 0.04 0.04 0.04 0.03 l -0.01,0.04 -0.01,0.06 v 0.06 l -0.02,0.05 -0.01,0.05 -0.02,0.05 -0.02,0.04 -0.02,0.04 -0.02,0.04 -0.03,0.03 -0.03,0.02 -0.04,0.03 -0.04,0.02 -0.04,0.02 -0.03,0.01 -0.02,0.01 h -0.03 l -0.02,0.01 -0.03,0.01 h -0.03 l -0.03,0.01 h -0.03 l -0.04,0.01 h -0.03 -0.04 l -0.04,0.01 h -0.03 -0.04 -0.05 l -0.04,0.01 h -0.04 -0.05 -0.05 -0.05 -0.05 -0.05 c -3.09,-3.19 -7.47,-3.19 -9.06,-3.19 v -1.55 c 1,0 3.93,0 6.51,1.3 v -25.81 c 0,-1.8 -0.14,-2.39 -4.62,-2.39 h -1.6 v -1.55 c 1.75,0.16 6.08,0.16 8.07,0.16 2,0 6.32,0 8.07,-0.16 v 1.55 h -1.59 c -4.48,0 -4.64,0.54 -4.64,2.39 z"
             id="path6817" /><path
             style="fill:#000000;stroke-width:0"
             inkscape:connector-curvature="0"
             d="m 547.08,430.06 -0.01,0.75 -0.01,0.74 -0.02,0.75 -0.03,0.74 -0.04,0.75 -0.06,0.74 -0.08,0.74 -0.1,0.73 -0.11,0.74 -0.14,0.72 -0.16,0.73 -0.19,0.71 -0.22,0.72 -0.24,0.7 -0.28,0.7 -0.15,0.35 -0.16,0.34 c -2.28,4.8 -6.38,5.6 -8.47,5.6 -2.99,0 -6.63,-1.3 -8.67,-5.94 -1.6,-3.44 -1.85,-7.33 -1.85,-11.31 0,-3.74 0.21,-8.22 2.25,-12 2.14,-4.03 5.78,-5.03 8.22,-5.03 v 1.09 c -1.94,0 -4.89,1.25 -5.78,6.03 -0.55,2.99 -0.55,7.56 -0.55,10.52 0,3.19 0,6.47 0.41,9.15 0.94,5.94 4.67,6.38 5.92,6.38 1.64,0 4.94,-0.89 5.88,-5.83 0.5,-2.78 0.5,-6.58 0.5,-9.7 0,-3.75 0,-7.13 -0.55,-10.31 -0.75,-4.74 -3.59,-6.24 -5.83,-6.24 v 0 -1.09 c 2.69,0 6.47,1.04 8.67,5.78 1.6,3.44 1.85,7.31 1.85,11.25 z"
             id="path6819" /><path
             style="fill:#000000;stroke-width:0"
             inkscape:connector-curvature="0"
             d="m 575.04,440.11 h 0.06 0.05 0.11 l 0.12,0.01 h 0.06 l 0.06,0.01 h 0.06 l 0.05,0.01 0.06,0.01 0.06,0.01 0.06,0.01 0.05,0.01 0.06,0.02 0.05,0.02 0.05,0.02 0.05,0.02 0.05,0.03 0.04,0.03 0.04,0.03 0.04,0.04 0.04,0.04 0.02,0.02 0.02,0.02 0.01,0.02 0.02,0.03 0.01,0.02 0.01,0.03 0.02,0.02 0.01,0.03 0.01,0.03 0.01,0.03 0.01,0.03 v 0.03 l 0.01,0.03 v 0.04 l 0.01,0.03 v 0.04 0.04 0.04 c 0,0.86 -0.79,0.86 -1.39,0.86 h -20.76 c -0.56,0 -1.39,0 -1.39,-0.83 0,-0.88 0.79,-0.88 1.39,-0.88 z"
             id="path6821" /><path
             style="fill:#000000;stroke-width:0"
             inkscape:connector-curvature="0"
             d="m 598.64,437.96 v 1.25 h -3.88 v 15.54 c 0,0.72 0,0.97 -0.76,0.97 -0.43,0 -0.57,0 -0.91,-0.48 l -11.53,-16.03 v -1.25 h 10.25 l 0.23,1.25 h -9.2 l 9.2,12.75 v -12.75 l -0.23,-1.25 v -2.86 c 0,-1.19 0,-1.61 -2.83,-1.61 h -0.94 v -1.25 c 1.74,0.06 3.97,0.14 5.22,0.14 1.3,0 3.52,-0.08 5.27,-0.14 v 1.25 h -0.94 c -2.83,0 -2.83,0.42 -2.83,1.61 v 2.86 z"
             id="path6823" /><path
             style="fill:#000000;stroke-width:0"
             inkscape:connector-curvature="0"
             d="m 552.96,386.25 v 0.05 0.06 0.05 0.05 0.05 0.05 0.04 0.05 0.04 0.04 0.04 l -0.01,0.04 v 0.04 0.03 0.04 l -0.01,0.03 v 0.07 l -0.01,0.06 -0.02,0.05 -0.01,0.05 -0.02,0.05 -0.01,0.04 -0.03,0.04 -0.02,0.03 -0.03,0.04 -0.03,0.02 -0.04,0.03 -0.04,0.02 -0.04,0.02 -0.03,0.01 -0.02,0.01 h -0.03 l -0.02,0.01 -0.03,0.01 h -0.03 l -0.03,0.01 h -0.03 l -0.04,0.01 h -0.03 -0.04 l -0.03,0.01 h -0.04 -0.04 -0.05 -0.04 -0.04 l -0.05,0.01 h -0.05 -0.05 -0.05 -0.05 c -3.09,-3.19 -7.47,-3.19 -9.06,-3.19 v -1.55 c 1,0 3.94,0 6.51,1.3 V 358.3 c 0,-1.8 -0.14,-2.39 -4.62,-2.39 h -1.6 v -1.55 c 1.75,0.16 6.08,0.16 8.07,0.16 2,0 6.33,0 8.08,-0.16 v 1.55 h -1.6 c -4.48,0 -4.64,0.54 -4.64,2.39 z"
             id="path6825" /><path
             style="fill:#000000;stroke-width:0"
             inkscape:connector-curvature="0"
             d="m 513.84,326.49 v 0.06 0.05 0.05 0.05 0.05 0.05 0.04 0.05 0.04 0.04 l -0.01,0.04 v 0.04 0.04 0.04 0.03 l -0.01,0.04 -0.01,0.06 v 0.06 l -0.02,0.05 -0.01,0.05 -0.02,0.05 -0.02,0.04 -0.02,0.04 -0.02,0.04 -0.03,0.03 -0.03,0.03 -0.04,0.02 -0.04,0.02 -0.04,0.02 -0.03,0.01 -0.02,0.01 h -0.03 l -0.02,0.01 -0.03,0.01 h -0.03 l -0.03,0.01 h -0.03 l -0.04,0.01 h -0.03 -0.04 l -0.04,0.01 h -0.03 -0.04 -0.05 l -0.04,0.01 h -0.04 -0.05 -0.05 -0.05 -0.05 -0.05 c -3.09,-3.19 -7.47,-3.19 -9.06,-3.19 v -1.55 c 1,0 3.93,0 6.51,1.3 v -25.81 c 0,-1.8 -0.14,-2.39 -4.62,-2.39 h -1.6 v -1.55 c 1.75,0.16 6.08,0.16 8.07,0.16 2,0 6.32,0 8.07,-0.16 v 1.55 h -1.59 c -4.48,0 -4.64,0.55 -4.64,2.39 z"
             id="path6827" /><path
             style="fill:#000000;stroke-width:0"
             inkscape:connector-curvature="0"
             d="m 547.08,310.54 -0.01,0.75 -0.01,0.74 -0.02,0.75 -0.03,0.74 -0.04,0.75 -0.06,0.74 -0.08,0.74 -0.1,0.73 -0.11,0.74 -0.14,0.72 -0.16,0.73 -0.19,0.71 -0.22,0.72 -0.24,0.7 -0.28,0.7 -0.15,0.35 -0.16,0.35 c -2.28,4.79 -6.38,5.59 -8.47,5.59 -2.99,0 -6.63,-1.3 -8.67,-5.94 -1.6,-3.44 -1.85,-7.33 -1.85,-11.31 0,-3.74 0.21,-8.22 2.25,-12 2.14,-4.03 5.78,-5.03 8.22,-5.03 v 1.09 c -1.94,0 -4.89,1.25 -5.78,6.03 -0.55,2.99 -0.55,7.57 -0.55,10.52 0,3.19 0,6.47 0.41,9.15 0.94,5.94 4.67,6.38 5.92,6.38 1.64,0 4.94,-0.89 5.88,-5.83 0.5,-2.78 0.5,-6.58 0.5,-9.7 0,-3.75 0,-7.13 -0.55,-10.31 -0.75,-4.74 -3.59,-6.24 -5.83,-6.24 v 0 -1.09 c 2.69,0 6.47,1.04 8.67,5.78 1.6,3.44 1.85,7.31 1.85,11.25 z"
             id="path6829" /><path
             style="fill:#000000;stroke-width:0"
             inkscape:connector-curvature="0"
             d="m 575.04,320.59 h 0.06 0.05 l 0.11,0.01 h 0.12 0.06 l 0.06,0.01 h 0.06 l 0.05,0.01 0.06,0.01 0.06,0.01 0.06,0.01 0.05,0.01 0.06,0.02 0.05,0.02 0.05,0.02 0.05,0.02 0.05,0.03 0.04,0.03 0.04,0.03 0.04,0.04 0.04,0.04 0.02,0.02 0.02,0.02 0.01,0.02 0.02,0.03 0.01,0.02 0.01,0.03 0.02,0.02 0.01,0.03 0.01,0.03 0.01,0.03 0.01,0.03 v 0.03 l 0.01,0.04 v 0.03 l 0.01,0.03 v 0.04 0.04 0.04 c 0,0.86 -0.79,0.86 -1.39,0.86 h -20.76 c -0.56,0 -1.39,0 -1.39,-0.83 0,-0.88 0.79,-0.88 1.39,-0.88 z"
             id="path6831" /><path
             style="fill:#000000;stroke-width:0"
             inkscape:connector-curvature="0"
             d="m 592.57,325.3 0.26,0.12 0.24,0.13 0.24,0.13 0.24,0.13 0.22,0.13 0.22,0.14 0.22,0.14 0.21,0.14 0.2,0.14 0.19,0.15 0.19,0.15 0.18,0.15 0.17,0.15 0.16,0.16 0.16,0.16 0.15,0.16 0.14,0.16 0.13,0.17 0.13,0.17 0.11,0.18 0.11,0.18 0.1,0.18 0.09,0.19 0.08,0.19 0.08,0.19 0.06,0.2 0.05,0.2 0.05,0.2 0.03,0.21 0.03,0.22 0.01,0.21 0.01,0.23 c 0,3.39 -3.52,5.2 -6.89,5.2 l -0.08,-1.02 c 2.72,0 5.12,-1.7 5.12,-4.18 0,-3.1 -3.62,-4.66 -3.68,-4.66 -0.08,0 -0.15,0.03 -0.4,0.17 l -4.21,2.44 c -0.91,0.51 -1.88,1.47 -1.88,2.75 0,2.2 2.55,3.48 5.05,3.48 l 0.08,1.02 c -3.85,0 -6.97,-2.52 -6.97,-5.83 0,-1.62 0.76,-2.81 1.39,-3.51 0.62,-0.74 0.87,-0.88 2.92,-2.1 -1.95,-0.83 -5.41,-2.72 -5.41,-6.37 0,-3.86 4.02,-6.03 7.99,-6.03 l 0.08,1.12 c -3.22,0 -5.97,2.05 -5.97,4.91 0,2.57 1.92,4.56 4.42,5.72 v 0 l 4.78,-2.75 c 0.91,-0.54 2.64,-1.58 2.64,-3.63 0,-2.61 -2.89,-4.25 -5.87,-4.25 l -0.08,-1.12 c 4.42,0 8.04,2.82 8.04,6.59 0,2.3 -1.35,4.25 -3.37,5.44 -0.45,0.28 -1.67,0.97 -2.16,1.25 z"
             id="path6833" /><path
             style="fill:#000000;stroke-width:0"
             inkscape:connector-curvature="0"
             d="m 631.45,368.27 -0.02,2.82 -0.05,2.74 -0.07,2.67 -0.1,2.6 -0.13,2.52 -0.15,2.44 -0.17,2.38 -0.19,2.29 -0.21,2.23 -0.22,2.15 -0.24,2.07 -0.26,2.01 -0.26,1.92 -0.27,1.86 -0.29,1.77 -0.28,1.71 -0.3,1.63 -0.29,1.55 -0.3,1.48 -0.3,1.41 -0.29,1.33 -0.29,1.26 -0.28,1.18 -0.28,1.11 -0.27,1.03 -0.25,0.96 -0.24,0.89 -0.23,0.8 -0.22,0.74 -0.19,0.66 -0.18,0.58 -0.15,0.51 c -3.39,11.06 -8.93,22.72 -17.25,32.98 -0.75,0.91 -0.94,1.16 -1.14,1.25 -0.1,0.05 -0.16,0.1 -0.96,0.1 -0.73,0 -1.14,0 -1.14,-0.5 0,-0.1 0,-0.19 0.64,-1.1 17.35,-24.2 21.24,-54.09 21.28,-87.82 0,-0.71 0.3,-0.71 1.39,-0.71 h 2.75 c 1.05,0 1.35,0 1.4,0.55 z"
             id="path6835" /><path
             style="fill:#000000;stroke-width:0"
             inkscape:connector-curvature="0"
             d="m 631.45,366.26 -0.01,0.05 -0.01,0.04 -0.01,0.05 -0.01,0.04 -0.01,0.04 -0.01,0.03 -0.02,0.03 -0.01,0.03 -0.02,0.03 -0.03,0.03 -0.02,0.02 -0.03,0.02 -0.03,0.02 -0.03,0.02 -0.04,0.01 -0.04,0.02 -0.04,0.01 -0.04,0.01 -0.05,0.01 -0.05,0.01 h -0.05 l -0.06,0.01 h -0.06 l -0.06,0.01 h -0.07 -0.07 -0.08 -0.08 -0.08 -0.09 -0.09 -0.1 -2.75 c -1.09,0 -1.39,0 -1.39,-0.68 0,-5.14 -0.04,-17 -1.34,-29.39 -2.69,-25.77 -9.31,-43.6 -20.23,-58.89 -0.35,-0.46 -0.35,-0.55 -0.35,-0.66 0,-0.5 0.41,-0.5 1.14,-0.5 0.8,0 0.91,0 1,0.11 0.21,0.14 6.53,7.42 11.57,17.44 6.57,13.14 10.7,28.25 12.54,46.37 0.16,1.55 1.21,11.91 1.21,23.72 z"
             id="path6837" /></g>      </g>
      <g
         id="g7094"
         transform="matrix(0.23896508,0,0,0.23896508,58.696225,76.01711)">
        <g
           word-spacing="normal"
           letter-spacing="normal"
           font-size-adjust="none"
           font-stretch="normal"
           font-weight="normal"
           font-variant="normal"
           font-style="normal"
           stroke-miterlimit="10.433"
           xml:space="preserve"
           transform="matrix(0.3,0,0,-0.3,-52.5,222.75)"
           id="g7092"
           style="font-style:normal;font-variant:normal;font-weight:normal;font-stretch:normal;letter-spacing:normal;word-spacing:normal;text-anchor:start;fill:none;fill-opacity:1;fill-rule:evenodd;stroke:#000000;stroke-linecap:butt;stroke-linejoin:miter;stroke-miterlimit:10.43299961;stroke-dasharray:none;stroke-dashoffset:0;stroke-opacity:1"><path
             id="path7072"
             d="m 474.16,365.77 h 0.1 0.1 0.09 0.08 l 0.09,0.01 h 0.07 0.08 0.07 l 0.07,0.01 h 0.06 l 0.06,0.01 0.05,0.01 0.05,0.01 0.05,0.01 0.04,0.02 0.05,0.01 0.03,0.02 0.04,0.02 0.03,0.02 0.03,0.02 0.03,0.03 0.02,0.03 0.02,0.03 0.02,0.04 0.01,0.04 0.02,0.04 0.01,0.05 0.01,0.04 v 0.06 l 0.01,0.05 v 0.06 0.07 c 0.09,34.92 4.13,63.92 21.56,88.28 0.36,0.45 0.36,0.54 0.36,0.64 0,0.5 -0.36,0.5 -1.15,0.5 -0.8,0 -0.89,0 -0.99,-0.1 -0.2,-0.15 -6.53,-7.42 -11.56,-17.43 -6.58,-13.16 -10.72,-28.25 -12.56,-46.39 -0.14,-1.53 -1.19,-11.91 -1.19,-23.71 v -1.95 c 0.05,-0.55 0.34,-0.55 1.39,-0.55 z"
             inkscape:connector-curvature="0"
             style="fill:#000000;stroke-width:0" /><path
             id="path7074"
             d="m 471.41,366.8 h -0.1 -0.09 -0.09 -0.08 -0.08 -0.07 -0.07 -0.07 l -0.07,-0.01 h -0.06 l -0.05,-0.01 h -0.06 l -0.05,-0.01 -0.05,-0.01 -0.04,-0.01 -0.04,-0.01 -0.04,-0.02 -0.03,-0.01 -0.04,-0.02 -0.03,-0.02 -0.02,-0.02 -0.03,-0.02 -0.02,-0.03 -0.02,-0.03 -0.02,-0.03 -0.01,-0.03 -0.02,-0.03 -0.01,-0.04 -0.01,-0.04 -0.01,-0.05 v -0.04 l -0.01,-0.05 v -1.94 c 0,-30.44 5.42,-48.28 6.97,-53.31 3.39,-11.06 8.92,-22.72 17.25,-32.99 0.73,-0.89 0.94,-1.14 1.14,-1.23 0.09,-0.06 0.14,-0.11 0.94,-0.11 0.79,0 1.15,0 1.15,0.5 0,0.11 0,0.2 -0.29,0.66 -16.6,23.01 -21.58,50.71 -21.63,88.28 0,0.68 -0.3,0.68 -1.39,0.68 z"
             inkscape:connector-curvature="0"
             style="fill:#000000;stroke-width:0" /><path
             id="path7076"
             d="m 552.96,446.01 v 0.06 0.05 0.05 0.05 0.05 0.05 0.04 0.05 0.04 0.04 0.04 l -0.01,0.04 v 0.04 0.04 0.03 l -0.01,0.04 v 0.06 l -0.01,0.06 -0.02,0.05 -0.01,0.05 -0.02,0.05 -0.01,0.04 -0.03,0.04 -0.02,0.04 -0.03,0.03 -0.03,0.02 -0.04,0.03 -0.04,0.02 -0.04,0.02 -0.03,0.01 -0.02,0.01 h -0.03 l -0.02,0.01 -0.03,0.01 h -0.03 l -0.03,0.01 h -0.03 l -0.04,0.01 h -0.03 -0.04 l -0.03,0.01 h -0.04 -0.04 -0.05 l -0.04,0.01 h -0.04 -0.05 -0.05 -0.05 -0.05 -0.05 c -3.09,-3.19 -7.47,-3.19 -9.06,-3.19 v -1.55 c 1,0 3.94,0 6.51,1.3 v -25.81 c 0,-1.8 -0.14,-2.39 -4.62,-2.39 h -1.6 v -1.55 c 1.75,0.16 6.08,0.16 8.07,0.16 2,0 6.33,0 8.08,-0.16 v 1.55 h -1.6 c -4.48,0 -4.64,0.54 -4.64,2.39 z"
             inkscape:connector-curvature="0"
             style="fill:#000000;stroke-width:0" /><path
             id="path7078"
             d="m 561.24,370.3 v 0.74 l -0.01,0.75 -0.02,0.75 -0.03,0.74 -0.05,0.75 -0.06,0.74 -0.08,0.74 -0.09,0.73 -0.12,0.73 -0.14,0.73 -0.16,0.72 -0.19,0.72 -0.21,0.72 -0.25,0.7 -0.28,0.7 -0.15,0.35 -0.16,0.34 c -2.28,4.8 -6.37,5.6 -8.47,5.6 -2.98,0 -6.62,-1.3 -8.67,-5.94 -1.59,-3.44 -1.84,-7.33 -1.84,-11.31 0,-3.74 0.2,-8.22 2.25,-12 2.14,-4.03 5.78,-5.03 8.22,-5.03 v 1.09 c -1.94,0 -4.89,1.25 -5.78,6.03 -0.55,2.99 -0.55,7.56 -0.55,10.52 0,3.18 0,6.47 0.4,9.15 0.94,5.94 4.68,6.38 5.93,6.38 1.64,0 4.93,-0.89 5.87,-5.83 0.5,-2.78 0.5,-6.58 0.5,-9.7 0,-3.75 0,-7.13 -0.55,-10.32 -0.75,-4.73 -3.59,-6.23 -5.82,-6.23 v 0 -1.09 c 2.68,0 6.47,1.04 8.67,5.78 1.59,3.43 1.84,7.31 1.84,11.25 z"
             inkscape:connector-curvature="0"
             style="fill:#000000;stroke-width:0" /><path
             id="path7080"
             d="m 513.84,326.49 v 0.06 0.05 0.05 0.05 0.05 0.05 0.04 0.05 0.04 0.04 l -0.01,0.04 v 0.04 0.04 0.04 0.03 l -0.01,0.04 -0.01,0.06 v 0.06 l -0.02,0.05 -0.01,0.05 -0.02,0.05 -0.02,0.04 -0.02,0.04 -0.02,0.04 -0.03,0.03 -0.03,0.03 -0.04,0.02 -0.04,0.02 -0.04,0.02 -0.03,0.01 -0.02,0.01 h -0.03 l -0.02,0.01 -0.03,0.01 h -0.03 l -0.03,0.01 h -0.03 l -0.04,0.01 h -0.03 -0.04 l -0.04,0.01 h -0.03 -0.04 -0.05 l -0.04,0.01 h -0.04 -0.05 -0.05 -0.05 -0.05 -0.05 c -3.09,-3.19 -7.47,-3.19 -9.06,-3.19 v -1.55 c 1,0 3.93,0 6.51,1.3 v -25.81 c 0,-1.8 -0.14,-2.39 -4.62,-2.39 h -1.6 v -1.55 c 1.75,0.16 6.08,0.16 8.07,0.16 2,0 6.32,0 8.07,-0.16 v 1.55 h -1.59 c -4.48,0 -4.64,0.55 -4.64,2.39 z"
             inkscape:connector-curvature="0"
             style="fill:#000000;stroke-width:0" /><path
             id="path7082"
             d="m 547.08,310.54 -0.01,0.75 -0.01,0.74 -0.02,0.75 -0.03,0.74 -0.04,0.75 -0.06,0.74 -0.08,0.74 -0.1,0.73 -0.11,0.74 -0.14,0.72 -0.16,0.73 -0.19,0.71 -0.22,0.72 -0.24,0.7 -0.28,0.7 -0.15,0.35 -0.16,0.35 c -2.28,4.79 -6.38,5.59 -8.47,5.59 -2.99,0 -6.63,-1.3 -8.67,-5.94 -1.6,-3.44 -1.85,-7.33 -1.85,-11.31 0,-3.74 0.21,-8.22 2.25,-12 2.14,-4.03 5.78,-5.03 8.22,-5.03 v 1.09 c -1.94,0 -4.89,1.25 -5.78,6.03 -0.55,2.99 -0.55,7.57 -0.55,10.52 0,3.19 0,6.47 0.41,9.15 0.94,5.94 4.67,6.38 5.92,6.38 1.64,0 4.94,-0.89 5.88,-5.83 0.5,-2.78 0.5,-6.58 0.5,-9.7 0,-3.75 0,-7.13 -0.55,-10.31 -0.75,-4.74 -3.59,-6.24 -5.83,-6.24 v 0 -1.09 c 2.69,0 6.47,1.04 8.67,5.78 1.6,3.44 1.85,7.31 1.85,11.25 z"
             inkscape:connector-curvature="0"
             style="fill:#000000;stroke-width:0" /><path
             id="path7084"
             d="m 575.04,320.59 h 0.06 0.05 l 0.11,0.01 h 0.12 0.06 l 0.06,0.01 h 0.06 l 0.05,0.01 0.06,0.01 0.06,0.01 0.06,0.01 0.05,0.01 0.06,0.02 0.05,0.02 0.05,0.02 0.05,0.02 0.05,0.03 0.04,0.03 0.04,0.03 0.04,0.04 0.04,0.04 0.02,0.02 0.02,0.02 0.01,0.02 0.02,0.03 0.01,0.02 0.01,0.03 0.02,0.02 0.01,0.03 0.01,0.03 0.01,0.03 0.01,0.03 v 0.03 l 0.01,0.04 v 0.03 l 0.01,0.03 v 0.04 0.04 0.04 c 0,0.86 -0.79,0.86 -1.39,0.86 h -20.76 c -0.56,0 -1.39,0 -1.39,-0.83 0,-0.88 0.79,-0.88 1.39,-0.88 z"
             inkscape:connector-curvature="0"
             style="fill:#000000;stroke-width:0" /><path
             id="path7086"
             d="m 592.57,325.3 0.26,0.12 0.24,0.13 0.24,0.13 0.24,0.13 0.22,0.13 0.22,0.14 0.22,0.14 0.21,0.14 0.2,0.14 0.19,0.15 0.19,0.15 0.18,0.15 0.17,0.15 0.16,0.16 0.16,0.16 0.15,0.16 0.14,0.16 0.13,0.17 0.13,0.17 0.11,0.18 0.11,0.18 0.1,0.18 0.09,0.19 0.08,0.19 0.08,0.19 0.06,0.2 0.05,0.2 0.05,0.2 0.03,0.21 0.03,0.22 0.01,0.21 0.01,0.23 c 0,3.39 -3.52,5.2 -6.89,5.2 l -0.08,-1.02 c 2.72,0 5.12,-1.7 5.12,-4.18 0,-3.1 -3.62,-4.66 -3.68,-4.66 -0.08,0 -0.15,0.03 -0.4,0.17 l -4.21,2.44 c -0.91,0.51 -1.88,1.47 -1.88,2.75 0,2.2 2.55,3.48 5.05,3.48 l 0.08,1.02 c -3.85,0 -6.97,-2.52 -6.97,-5.83 0,-1.62 0.76,-2.81 1.39,-3.51 0.62,-0.74 0.87,-0.88 2.92,-2.1 -1.95,-0.83 -5.41,-2.72 -5.41,-6.37 0,-3.86 4.02,-6.03 7.99,-6.03 l 0.08,1.12 c -3.22,0 -5.97,2.05 -5.97,4.91 0,2.57 1.92,4.56 4.42,5.72 v 0 l 4.78,-2.75 c 0.91,-0.54 2.64,-1.58 2.64,-3.63 0,-2.61 -2.89,-4.25 -5.87,-4.25 l -0.08,-1.12 c 4.42,0 8.04,2.82 8.04,6.59 0,2.3 -1.35,4.25 -3.37,5.44 -0.45,0.28 -1.67,0.97 -2.16,1.25 z"
             inkscape:connector-curvature="0"
             style="fill:#000000;stroke-width:0" /><path
             id="path7088"
             d="m 631.45,368.27 -0.02,2.82 -0.05,2.74 -0.07,2.67 -0.1,2.6 -0.13,2.52 -0.15,2.44 -0.17,2.38 -0.19,2.29 -0.21,2.23 -0.22,2.15 -0.24,2.07 -0.26,2.01 -0.26,1.92 -0.27,1.86 -0.29,1.77 -0.28,1.71 -0.3,1.63 -0.29,1.55 -0.3,1.48 -0.3,1.41 -0.29,1.33 -0.29,1.26 -0.28,1.18 -0.28,1.11 -0.27,1.03 -0.25,0.96 -0.24,0.89 -0.23,0.8 -0.22,0.74 -0.19,0.66 -0.18,0.58 -0.15,0.51 c -3.39,11.06 -8.93,22.72 -17.25,32.98 -0.75,0.91 -0.94,1.16 -1.14,1.25 -0.1,0.05 -0.16,0.1 -0.96,0.1 -0.73,0 -1.14,0 -1.14,-0.5 0,-0.1 0,-0.19 0.64,-1.1 17.35,-24.2 21.24,-54.09 21.28,-87.82 0,-0.71 0.3,-0.71 1.39,-0.71 h 2.75 c 1.05,0 1.35,0 1.4,0.55 z"
             inkscape:connector-curvature="0"
             style="fill:#000000;stroke-width:0" /><path
             id="path7090"
             d="m 631.45,366.26 -0.01,0.05 -0.01,0.04 -0.01,0.05 -0.01,0.04 -0.01,0.04 -0.01,0.03 -0.02,0.03 -0.01,0.03 -0.02,0.03 -0.03,0.03 -0.02,0.02 -0.03,0.02 -0.03,0.02 -0.03,0.02 -0.04,0.01 -0.04,0.02 -0.04,0.01 -0.04,0.01 -0.05,0.01 -0.05,0.01 h -0.05 l -0.06,0.01 h -0.06 l -0.06,0.01 h -0.07 -0.07 -0.08 -0.08 -0.08 -0.09 -0.09 -0.1 -2.75 c -1.09,0 -1.39,0 -1.39,-0.68 0,-5.14 -0.04,-17 -1.34,-29.39 -2.69,-25.77 -9.31,-43.6 -20.23,-58.89 -0.35,-0.46 -0.35,-0.55 -0.35,-0.66 0,-0.5 0.41,-0.5 1.14,-0.5 0.8,0 0.91,0 1,0.11 0.21,0.14 6.53,7.42 11.57,17.44 6.57,13.14 10.7,28.25 12.54,46.37 0.16,1.55 1.21,11.91 1.21,23.72 z"
             inkscape:connector-curvature="0"
             style="fill:#000000;stroke-width:0" /></g>      </g>
    </g>
    <g
       id="g7338"
       transform="matrix(0.52289683,0,0,0.52289683,-72.473543,38.914641)">
      <g
         word-spacing="normal"
         letter-spacing="normal"
         font-size-adjust="none"
         font-stretch="normal"
         font-weight="normal"
         font-variant="normal"
         font-style="normal"
         stroke-miterlimit="10.433"
         xml:space="preserve"
         transform="matrix(0.3,0,0,-0.3,-52.5,222.75)"
         id="g7336"
         style="font-style:normal;font-variant:normal;font-weight:normal;font-stretch:normal;letter-spacing:normal;word-spacing:normal;text-anchor:start;fill:none;fill-opacity:1;fill-rule:evenodd;stroke:#000000;stroke-linecap:butt;stroke-linejoin:miter;stroke-miterlimit:10.43299961;stroke-dasharray:none;stroke-dashoffset:0;stroke-opacity:1"><path
           id="path7322"
           d="m 474.16,365.77 h 0.1 0.1 0.09 0.08 l 0.09,0.01 h 0.07 0.08 0.07 l 0.07,0.01 h 0.06 l 0.06,0.01 0.05,0.01 0.05,0.01 0.05,0.01 0.04,0.02 0.05,0.01 0.03,0.02 0.04,0.02 0.03,0.02 0.03,0.02 0.03,0.03 0.02,0.03 0.02,0.03 0.02,0.04 0.01,0.04 0.02,0.04 0.01,0.05 0.01,0.04 v 0.06 l 0.01,0.05 v 0.06 0.07 c 0.09,34.92 4.13,63.92 21.56,88.28 0.36,0.45 0.36,0.54 0.36,0.64 0,0.5 -0.36,0.5 -1.15,0.5 -0.8,0 -0.89,0 -0.99,-0.1 -0.2,-0.15 -6.53,-7.42 -11.56,-17.43 -6.58,-13.16 -10.72,-28.25 -12.56,-46.39 -0.14,-1.53 -1.19,-11.91 -1.19,-23.71 v -1.95 c 0.05,-0.55 0.34,-0.55 1.39,-0.55 z"
           inkscape:connector-curvature="0"
           style="fill:#000000;stroke-width:0" /><path
           id="path7324"
           d="m 471.41,366.8 h -0.1 -0.09 -0.09 -0.08 -0.08 -0.07 -0.07 -0.07 l -0.07,-0.01 h -0.06 l -0.05,-0.01 h -0.06 l -0.05,-0.01 -0.05,-0.01 -0.04,-0.01 -0.04,-0.01 -0.04,-0.02 -0.03,-0.01 -0.04,-0.02 -0.03,-0.02 -0.02,-0.02 -0.03,-0.02 -0.02,-0.03 -0.02,-0.03 -0.02,-0.03 -0.01,-0.03 -0.02,-0.03 -0.01,-0.04 -0.01,-0.04 -0.01,-0.05 v -0.04 l -0.01,-0.05 v -1.94 c 0,-30.44 5.42,-48.28 6.97,-53.31 3.39,-11.06 8.92,-22.72 17.25,-32.99 0.73,-0.89 0.94,-1.14 1.14,-1.23 0.09,-0.06 0.14,-0.11 0.94,-0.11 0.79,0 1.15,0 1.15,0.5 0,0.11 0,0.2 -0.29,0.66 -16.6,23.01 -21.58,50.71 -21.63,88.28 0,0.68 -0.3,0.68 -1.39,0.68 z"
           inkscape:connector-curvature="0"
           style="fill:#000000;stroke-width:0" /><path
           id="path7326"
           d="m 507.32,405.5 -0.01,-0.03 v -0.03 l -0.01,-0.02 v -0.03 l -0.01,-0.02 -0.01,-0.03 v -0.02 l -0.01,-0.02 v -0.03 l -0.01,-0.02 v -0.02 -0.02 l -0.01,-0.02 v -0.02 l -0.01,-0.03 -0.01,-0.04 v -0.03 l -0.01,-0.03 -0.01,-0.03 v -0.02 l -0.01,-0.03 v -0.02 -0.02 l -0.01,-0.02 v -0.02 -0.02 -0.02 -0.01 l -0.01,-0.02 v -0.01 -0.01 -0.02 -0.01 -0.02 -0.02 -0.02 c 0,-0.74 0.55,-1.34 1.39,-1.34 1.05,0 1.64,0.9 1.75,1.04 0.23,0.46 1.84,7.13 3.19,12.52 0.98,-2 2.58,-3.35 4.92,-3.35 l -0.05,1.1 c -3.48,0 -4.28,3.98 -4.28,4.44 0,0.2 0.25,1.18 0.39,1.84 1.41,5.58 1.91,7.37 3,9.36 2.14,3.64 4.63,4.73 6.17,4.73 1.85,0 3.44,-1.43 3.44,-4.87 0,-2.75 -1.44,-8.33 -2.78,-10.77 -1.66,-3.14 -4.05,-4.73 -5.94,-4.73 v 0 l 0.05,-1.1 c 5.83,0 12.27,7.04 12.27,14.46 0,5.28 -3.3,8.11 -6.94,8.11 -4.83,0 -10.06,-4.99 -11.55,-11.07 z"
           inkscape:connector-curvature="0"
           style="fill:#000000;stroke-width:0" /><path
           id="path7328"
           d="m 521.8,357.16 0.05,-0.19 0.06,-0.19 0.07,-0.18 0.08,-0.18 0.08,-0.17 0.09,-0.16 0.09,-0.16 0.1,-0.16 0.11,-0.15 0.11,-0.15 0.11,-0.14 0.13,-0.13 0.12,-0.13 0.14,-0.12 0.14,-0.12 0.14,-0.11 0.15,-0.11 0.15,-0.1 0.15,-0.09 0.16,-0.09 0.17,-0.08 0.17,-0.07 0.17,-0.07 0.17,-0.06 0.18,-0.06 0.19,-0.04 0.18,-0.04 0.19,-0.04 0.19,-0.02 0.2,-0.02 0.19,-0.01 0.2,-0.01 c 1.74,0 2.89,1.14 3.69,2.74 0.85,1.79 1.49,4.84 1.49,4.93 0,0.5 -0.44,0.5 -0.6,0.5 -0.5,0 -0.54,-0.2 -0.7,-0.9 -0.69,-2.78 -1.64,-6.17 -3.73,-6.17 -1.05,0 -1.54,0.65 -1.54,2.29 0,1.1 0.6,3.44 0.99,5.18 l 1.4,5.39 c 0.15,0.75 0.65,2.64 0.85,3.39 0.25,1.14 0.75,3.03 0.75,3.32 0,0.91 -0.71,1.35 -1.45,1.35 -0.26,0 -1.55,-0.05 -1.94,-1.74 -0.96,-3.64 -3.14,-12.36 -3.74,-15 -0.06,-0.2 -2.04,-4.18 -5.68,-4.18 -2.6,0 -3.1,2.25 -3.1,4.09 0,2.78 1.41,6.72 2.7,10.16 0.6,1.5 0.85,2.18 0.85,3.14 0,2.23 -1.59,4.08 -4.09,4.08 -4.74,0 -6.58,-7.22 -6.58,-7.68 0,-0.5 0.5,-0.5 0.61,-0.5 0.5,0 0.54,0.11 0.79,0.91 1.24,4.33 3.14,6.17 5.03,6.17 0.44,0 1.25,-0.05 1.25,-1.64 0,-1.2 -0.56,-2.64 -0.86,-3.39 -1.84,-4.94 -2.89,-8.02 -2.89,-10.45 0,-4.74 3.44,-5.99 6.15,-5.99 3.28,0 5.07,2.24 5.92,3.35 z"
           inkscape:connector-curvature="0"
           style="fill:#000000;stroke-width:0" /><path
           id="path7330"
           d="m 514.29,310.35 0.21,1.28 3.39,13.57 c 0.43,1.73 0.54,1.89 2.68,1.89 h 4.78 c 4.15,0 6.79,-1.35 6.79,-4.79 0,-1.95 -1,-6.23 -2.94,-8.03 -2.5,-2.23 -5.48,-2.64 -7.69,-2.64 h -7.01 l -0.21,-1.28 h 8.47 c 7.08,0 14,5.17 14,10.75 0,3.85 -3.28,7.53 -9.81,7.53 h -16.14 c -0.95,0 -1.5,0 -1.5,-0.95 0,-0.59 0.45,-0.59 1.45,-0.59 0.64,0 1.55,-0.05 2.14,-0.1 0.8,-0.11 1.1,-0.25 1.1,-0.79 0,-0.21 -0.05,-0.36 -0.21,-0.96 l -6.67,-26.75 c -0.5,-1.95 -0.59,-2.34 -4.53,-2.34 -0.84,0 -1.39,0 -1.39,-0.95 0,-0.6 0.59,-0.6 0.73,-0.6 1.41,0 4.94,0.16 6.33,0.16 1.05,0 2.14,-0.06 3.19,-0.06 1.11,0 2.2,-0.1 3.25,-0.1 0.34,0 0.98,0 0.98,1 0,0.55 -0.43,0.55 -1.39,0.55 -1.84,0 -3.23,0 -3.23,0.89 0,0.3 0.09,0.55 0.14,0.84 z"
           inkscape:connector-curvature="0"
           style="fill:#000000;stroke-width:0" /><path
           id="path7332"
           d="m 567.12,368.27 -0.01,2.82 -0.05,2.74 -0.07,2.67 -0.1,2.6 -0.13,2.52 -0.15,2.44 -0.17,2.38 -0.19,2.29 -0.21,2.23 -0.22,2.15 -0.24,2.07 -0.26,2.01 -0.26,1.92 -0.27,1.86 -0.29,1.77 -0.29,1.71 -0.29,1.63 -0.29,1.55 -0.3,1.48 -0.3,1.41 -0.29,1.33 -0.29,1.26 -0.28,1.18 -0.28,1.11 -0.27,1.03 -0.25,0.96 -0.25,0.89 -0.22,0.8 -0.22,0.74 -0.19,0.66 -0.18,0.58 -0.15,0.51 c -3.39,11.06 -8.93,22.72 -17.25,32.98 -0.75,0.91 -0.94,1.16 -1.14,1.25 -0.1,0.05 -0.16,0.1 -0.96,0.1 -0.73,0 -1.14,0 -1.14,-0.5 0,-0.1 0,-0.19 0.64,-1.1 17.35,-24.2 21.24,-54.09 21.28,-87.82 0,-0.71 0.3,-0.71 1.39,-0.71 h 2.75 c 1.05,0 1.35,0 1.39,0.55 z"
           inkscape:connector-curvature="0"
           style="fill:#000000;stroke-width:0" /><path
           id="path7334"
           d="m 567.12,366.26 v 0.05 l -0.01,0.04 -0.01,0.05 -0.01,0.04 -0.01,0.04 -0.01,0.03 -0.02,0.03 -0.01,0.03 -0.03,0.03 -0.02,0.03 -0.02,0.02 -0.03,0.02 -0.03,0.02 -0.03,0.02 -0.04,0.01 -0.04,0.02 -0.04,0.01 -0.04,0.01 -0.05,0.01 -0.05,0.01 h -0.05 l -0.06,0.01 h -0.06 l -0.06,0.01 h -0.07 -0.07 -0.08 -0.08 -0.08 -0.09 -0.09 -0.1 -2.75 c -1.09,0 -1.39,0 -1.39,-0.68 0,-5.14 -0.04,-17 -1.34,-29.39 -2.69,-25.77 -9.31,-43.6 -20.23,-58.89 -0.35,-0.46 -0.35,-0.55 -0.35,-0.66 0,-0.5 0.41,-0.5 1.14,-0.5 0.8,0 0.91,0 1,0.11 0.21,0.14 6.53,7.42 11.57,17.44 6.57,13.14 10.7,28.25 12.54,46.37 0.16,1.55 1.2,11.91 1.2,23.72 z"
           inkscape:connector-curvature="0"
           style="fill:#000000;stroke-width:0" /></g>    </g>
  </g>
</svg>
